<?xml version="1.0" encoding="UTF-8" standalone="no"?>
<svg width="43px" height="41px" viewBox="0 0 43 41" version="1.1" xmlns="http://www.w3.org/2000/svg" xmlns:xlink="http://www.w3.org/1999/xlink">
    <!-- Generator: Sketch 41.2 (35397) - http://www.bohemiancoding.com/sketch -->
    <title>icon_4</title>
    <desc>Created with Sketch.</desc>
    <defs>
        <path d="M4.31891026,3.0054767 C4.31891026,1.34559775 5.65756317,0 7.31682874,0 L27.2344533,0 C28.890158,0 30.2323718,1.33769656 30.2323718,3.0054767 L30.2323718,40.2051282 L4.31891026,40.2051282 L4.31891026,3.0054767 Z" id="path-1"></path>
        <mask id="mask-2" maskContentUnits="userSpaceOnUse" maskUnits="objectBoundingBox" x="0" y="0" width="25.9134615" height="40.2051282" fill="white">
            <use xlink:href="#path-1"></use>
        </mask>
        <rect id="path-3" x="11.2291667" y="8.74024526" width="12.9567308" height="11.3623188" rx="2"></rect>
        <mask id="mask-4" maskContentUnits="userSpaceOnUse" maskUnits="objectBoundingBox" x="0" y="0" width="12.9567308" height="11.3623188" fill="white">
            <use xlink:href="#path-3"></use>
        </mask>
    </defs>
    <g id="Page-1" stroke="none" stroke-width="1" fill="none" fill-rule="evenodd">
        <g id="icon_4" transform="translate(0.205128, 0.246377)">
            <rect id="Rectangle-57" fill="#5BBA47" x="0" y="38.4570792" width="34.5512821" height="1.74804905" rx="0.874024526"></rect>
            <use id="Rectangle-58" stroke="#5BBA47" mask="url(#mask-2)" stroke-width="4" xlink:href="#path-1"></use>
            <use id="Rectangle-59" stroke="#5BBA47" mask="url(#mask-4)" stroke-width="4" xlink:href="#path-3"></use>
            <path d="M29.7727184,26.8267815 L35.0225907,26.7794386 L35.029189,31.7140325 C35.029189,31.7140325 36.1431073,37.545108 38.6852644,35.8516864 C41.2274215,34.1582649 40.9670873,27.9004958 40.9670873,22.0548532 C40.9670873,16.2092107 36.9840946,15.1361034 36.9840946,15.1361034" id="Path-27" stroke="#5BBA47" stroke-width="2"></path>
            <path d="M40.3555465,8.29083969 L35.9634712,3.05656813 L33.9783849,4.72225333 L37.1562962,8.50954056 C36.7289042,8.79310047 36.0429347,9.34126985 35.753475,10.088462 C35.3180433,11.2124567 35.4685258,13.0504085 35.4685258,13.0504085 L35.4685258,15.7688452 L40.5977564,15.7688452 L40.5977564,8.29083969 L40.3555465,8.29083969 Z" id="Combined-Shape" fill="#5BBA47"></path>
        </g>
    </g>
</svg>