<?xml version="1.0" encoding="UTF-8" standalone="no"?>
<svg width="40px" height="41px" viewBox="0 0 40 41" version="1.1" xmlns="http://www.w3.org/2000/svg" xmlns:xlink="http://www.w3.org/1999/xlink">
    <!-- Generator: Sketch 41.2 (35397) - http://www.bohemiancoding.com/sketch -->
    <title>icon_5</title>
    <desc>Created with Sketch.</desc>
    <defs></defs>
    <g id="Page-1" stroke="none" stroke-width="1" fill="none" fill-rule="evenodd">
        <g id="icon_5" transform="translate(0.794872, 1.502787)">
            <path d="M37.3665375,14.4612187 C36.3537633,11.2772899 34.8032502,7.37366472 32.8533266,5.4722432 C29.3801984,2.08550496 24.6399266,0 19.4141772,0 C13.3504644,0 7.94040747,2.80796265 4.40521963,7.19860416 C3.24030433,8.64540859 2.27896882,11.1373942 1.56490861,13.4893912 C1.16664324,14.8012118 0.238545812,16.6156428 1.56490861,17.9821804 C2.89127141,19.3487179 5.15075609,19.3487179 5.15075609,19.3487179 L33.8151879,19.3487179 C33.8151879,19.3487179 35.5600719,19.1230712 36.638277,17.9821804 C37.716482,16.8412895 37.7286265,15.5995431 37.3665375,14.4612187 Z" id="Oval-15" stroke="#5BBA47" stroke-width="2"></path>
            <path d="M37.3665375,32.6353788 C37.1697443,32.0167064 35.9742268,31.0558053 33.8151879,30.7944791 C31.6561491,30.5331529 24.695031,30.8687425 19.2281949,30.7944791 C13.4215495,30.7155996 7.58851359,30.5278038 4.29785336,30.7944791 C1.00719312,31.0611543 1.68614244,31.2642269 1.56490861,31.6635513 C1.16664324,32.9753719 0.238545812,34.7898029 1.56490861,36.1563405 C2.89127141,37.522878 5.15075609,37.522878 5.15075609,37.522878 L33.8151879,37.522878 C33.8151879,37.522878 35.5600719,37.2972313 36.638277,36.1563405 C37.716482,35.0154496 37.7286265,33.7737031 37.3665375,32.6353788 Z" id="Oval-15" stroke="#5BBA47" stroke-width="2" transform="translate(19.228195, 34.089644) scale(1, -1) translate(-19.228195, -34.089644) "></path>
            <path d="M0.273802839,25.671069 C0.273802839,25.671069 2.83651817,23.8554602 4.97836203,24.7632646 C7.12020589,25.671069 8.49314995,26.4936407 10.1093305,25.8993023 C11.725511,25.304964 14.0302687,23.6366297 15.830474,24.7632646 C17.6306793,25.8898994 18.0922569,26.0608607 20.2106716,25.8659649 C22.3290864,25.671069 23.5793473,23.9609632 25.5933962,24.553837 C27.6074451,25.1467108 27.175924,25.827926 29.2231996,25.827926 C31.2704752,25.827926 32.1318133,24.5162255 33.9895264,24.5350313 C35.8472394,24.553837 37.5055922,25.8993023 37.5055922,25.8993023" id="Path-28" stroke="#5BBA47" stroke-width="2"></path>
            <path d="M15.3398927,12.3128205 C16.0660631,12.3128205 16.6547406,11.7221808 16.6547406,10.9935897 C16.6547406,10.2649987 16.0660631,9.67435897 15.3398927,9.67435897 C14.6137222,9.67435897 14.0250447,10.2649987 14.0250447,10.9935897 C14.0250447,11.7221808 14.6137222,12.3128205 15.3398927,12.3128205 Z M23.2289803,7.03589744 C23.9551508,7.03589744 24.5438283,6.4452577 24.5438283,5.71666667 C24.5438283,4.98807563 23.9551508,4.3974359 23.2289803,4.3974359 C22.5028099,4.3974359 21.9141324,4.98807563 21.9141324,5.71666667 C21.9141324,6.4452577 22.5028099,7.03589744 23.2289803,7.03589744 Z M27.6118068,14.0717949 C28.3379773,14.0717949 28.9266547,13.4811551 28.9266547,12.7525641 C28.9266547,12.0239731 28.3379773,11.4333333 27.6118068,11.4333333 C26.8856363,11.4333333 26.2969589,12.0239731 26.2969589,12.7525641 C26.2969589,13.4811551 26.8856363,14.0717949 27.6118068,14.0717949 Z M9.2039356,14.9512821 C9.93010607,14.9512821 10.5187835,14.3606423 10.5187835,13.6320513 C10.5187835,12.9034602 9.93010607,12.3128205 9.2039356,12.3128205 C8.47776513,12.3128205 7.88908766,12.9034602 7.88908766,13.6320513 C7.88908766,14.3606423 8.47776513,14.9512821 9.2039356,14.9512821 Z" id="Combined-Shape" fill="#5BBA47"></path>
            <ellipse id="Oval-16" fill="#5BBA47" cx="27.6118068" cy="12.7525641" rx="1.31484794" ry="1.31923077"></ellipse>
        </g>
    </g>
</svg>