<?xml version="1.0" encoding="UTF-8" standalone="no"?>
<svg width="36px" height="44px" viewBox="0 0 36 44" version="1.1" xmlns="http://www.w3.org/2000/svg" xmlns:xlink="http://www.w3.org/1999/xlink">
    <!-- Generator: Sketch 41.2 (35397) - http://www.bohemiancoding.com/sketch -->
    <title>icon 3</title>
    <desc>Created with Sketch.</desc>
    <defs></defs>
    <g id="Page-1" stroke="none" stroke-width="1" fill="none" fill-rule="evenodd">
        <g id="icon-3" transform="translate(-0.461538, 0.989967)" fill="#5BBA47">
            <path d="M18.2179487,23.6426736 L17.4031603,23.6312057 L17.402493,23.6541509 L12.3855707,23.7247627 C12.3855707,23.7247627 10.5966703,23.4614853 9.00771038,25.9761933 C7.4187505,28.4909013 6.44942159,30.1058805 6.44942159,30.1058805 L5.84431736,28.9273252 C5.84431736,28.9273252 5.39478117,28.5578407 4.57494549,28.5578407 C3.75510981,28.5578407 2.73269231,28.6516613 2.73269231,29.1297247 C2.73269231,29.607788 2.74404957,30.2555717 3.21735676,30.2555717 C3.69066396,30.2555717 5.04825268,30.3259372 5.04825268,30.3259372 C5.04825268,30.3259372 4.19038339,31.093632 4.19038339,32.659329 C4.19038339,34.225026 4.1845727,41.1242653 4.1845727,41.1242653 C4.1845727,41.1242653 3.93576947,42.3112538 4.89004341,42.3112538 C5.84431736,42.3112538 7.79221946,42.2174332 7.79221946,42.2174332 C7.79221946,42.2174332 8.41792524,41.9802464 8.41792524,41.2088619 C8.41792524,40.4374775 8.30329615,39.1795964 8.30329615,39.1795964 L18.2179487,39.1366019 L28.1326013,39.1795964 C28.1326013,39.1795964 28.0179722,40.4374775 28.0179722,41.2088619 C28.0179722,41.9802464 28.643678,42.2174332 28.643678,42.2174332 C28.643678,42.2174332 30.5915801,42.3112538 31.545854,42.3112538 C32.500128,42.3112538 32.2513247,41.1242653 32.2513247,41.1242653 C32.2513247,41.1242653 32.245514,34.225026 32.245514,32.659329 C32.245514,31.093632 31.3876448,30.3259372 31.3876448,30.3259372 C31.3876448,30.3259372 32.7452335,30.2555717 33.2185407,30.2555717 C33.6918479,30.2555717 33.7032051,29.607788 33.7032051,29.1297247 C33.7032051,28.6516613 32.6807876,28.5578407 31.8609519,28.5578407 C31.0411163,28.5578407 30.5915801,28.9273252 30.5915801,28.9273252 L29.9864758,30.1058805 C29.9864758,30.1058805 29.0171469,28.4909013 27.4281871,25.9761933 C25.8392272,23.4614853 24.0503267,23.7247627 24.0503267,23.7247627 L19.0334044,23.6541509 L19.0327371,23.6312057 L18.2179487,23.6426736 Z M18.2179487,31.3835095 L26.354794,31.3808917 C26.354794,31.3808917 27.5475703,31.2667785 27.2213793,30.3372694 C26.8951882,29.4077604 25.0093549,26.5675793 25.0093549,26.5675793 C25.0093549,26.5675793 24.219365,25.8697228 22.785709,25.8697228 C21.7744474,25.8697228 19.4813717,25.7998332 18.2179487,25.7586504 C16.9545258,25.7998332 14.66145,25.8697228 13.6501884,25.8697228 C12.2165324,25.8697228 11.4265426,26.5675793 11.4265426,26.5675793 C11.4265426,26.5675793 9.54070922,29.4077604 9.21451815,30.3372694 C8.88832709,31.2667785 10.0811035,31.3808917 10.0811035,31.3808917 L18.2179487,31.3835095 Z M26.4967291,35.5694594 C28.0449468,35.2964669 29.2116983,34.5742364 29.1027416,33.9563124 C28.993785,33.3383884 27.6503798,33.0587662 26.1021621,33.3317587 C24.5539445,33.6047513 23.3871929,34.3269818 23.4961496,34.9449058 C23.6051063,35.5628298 24.9485115,35.842452 26.4967291,35.5694594 Z M9.93916831,35.5694594 C8.39095068,35.2964669 7.22419913,34.5742364 7.3331558,33.9563124 C7.44211247,33.3383884 8.78551768,33.0587662 10.3337353,33.3317587 C11.881953,33.6047513 13.0487045,34.3269818 12.9397478,34.9449058 C12.8307912,35.5628298 11.487386,35.842452 9.93916831,35.5694594 Z" id="Combined-Shape"></path>
            <rect id="Rectangle-57" x="10.9307692" y="0" width="15.4852564" height="2.72667758" rx="1.36333879"></rect>
            <rect id="Rectangle-57" transform="translate(5.634281, 12.367347) rotate(-60.000000) translate(-5.634281, -12.367347) " x="-2.89282671" y="11.4584543" width="17.0542152" height="1.81778505" rx="0.908892526"></rect>
            <rect id="Rectangle-57" transform="translate(31.139409, 12.367347) scale(-1, 1) rotate(-60.000000) translate(-31.139409, -12.367347) " x="22.6123015" y="11.4584543" width="17.0542152" height="1.81778505" rx="0.908892526"></rect>
            <path d="M16.0984515,15.0882375 C16.0984515,14.0843025 16.9567098,13.0358305 18.0268986,12.7432732 L28.5800243,9.85836731 C29.6450762,9.56721428 30.5084714,10.2187802 30.5084714,11.1489732 L30.5084714,9.33118811 C30.5084714,10.3351231 29.6502132,11.383595 28.5800243,11.6761524 L18.0268986,14.5610583 C16.9618467,14.8522113 16.0984515,14.2006454 16.0984515,13.2704524 L16.0984515,15.0882375 Z" id="Rectangle-57" transform="translate(23.303461, 12.209713) scale(-1, 1) rotate(-60.000000) translate(-23.303461, -12.209713) "></path>
            <path d="M6.98947719,15.0882375 C6.98947719,14.0843025 7.84773541,13.0358305 8.91792427,12.7432732 L19.4710499,9.85836731 C20.5361018,9.56721428 21.399497,10.2187802 21.399497,11.1489732 L21.399497,9.33118811 C21.399497,10.3351231 20.5412388,11.383595 19.4710499,11.6761524 L8.91792427,14.5610583 C7.85287236,14.8522113 6.98947719,14.2006454 6.98947719,13.2704524 L6.98947719,15.0882375 Z" id="Rectangle-57" transform="translate(14.194487, 12.209713) rotate(-60.000000) translate(-14.194487, -12.209713) "></path>
        </g>
    </g>
</svg>