<?xml version="1.0" encoding="UTF-8" standalone="no"?>
<svg width="29px" height="43px" viewBox="0 0 29 43" version="1.1" xmlns="http://www.w3.org/2000/svg" xmlns:xlink="http://www.w3.org/1999/xlink">
    <!-- Generator: Sketch 41.2 (35397) - http://www.bohemiancoding.com/sketch -->
    <title>icon_1</title>
    <desc>Created with Sketch.</desc>
    <defs></defs>
    <g id="Page-1" stroke="none" stroke-width="1" fill="none" fill-rule="evenodd">
        <g id="icon_1" transform="translate(0.000000, -0.266444)" fill="#5BBA47">
            <path d="M21.0400854,12.3671963 C21.0400854,12.9554464 20.9265609,13.5156762 20.6995085,14.0479025 C20.4724561,14.5801288 20.1525234,15.0493212 19.7397008,15.4554939 C19.3268782,15.8616666 18.8314986,16.1873002 18.253547,16.4324044 C17.6755954,16.6775086 17.03573,16.8000588 16.3339316,16.8000588 L13.0520085,16.8000588 L13.0520085,22.4094157 L10.5544444,22.4094157 L10.5544444,7.78727196 L16.1481624,7.78727196 C16.8224392,7.78727196 17.4554244,7.88531218 18.0471367,8.08139554 C18.6388491,8.27747891 19.1583097,8.56459668 19.6055342,8.94275746 C20.0527586,9.32091824 20.4036525,9.79711356 20.6582265,10.3713577 C20.9128004,10.9456019 21.0400854,11.6108747 21.0400854,12.3671963 Z M18.4805983,12.3041698 C18.4805983,11.5478483 18.2604295,10.9911199 17.8200854,10.6339681 C17.3797414,10.2768162 16.8017984,10.098243 16.0862393,10.098243 L13.0520085,10.098243 L13.0520085,14.4890879 L16.1688034,14.4890879 C16.8981233,14.4890879 17.4657458,14.2719988 17.871688,13.8378142 C18.2776302,13.4036296 18.4805983,12.8924199 18.4805983,12.3041698 Z" id="P"></path>
            <path d="M14.5782244,28.7404542 C22.4395601,28.7404542 28.8124318,22.3850675 28.8124318,14.5453007 C28.8124318,6.70553384 22.4395601,0.350147121 14.5782244,0.350147121 C6.71688879,0.350147121 0.344017094,6.70553384 0.344017094,14.5453007 C0.344017094,22.3850675 6.71688879,28.7404542 14.5782244,28.7404542 Z M14.5782244,27.0370358 C7.66024907,27.0370358 2.05212197,21.4442955 2.05212197,14.5453007 C2.05212197,7.64630586 7.66024907,2.05356555 14.5782244,2.05356555 C21.4961998,2.05356555 27.1043269,7.64630586 27.1043269,14.5453007 C27.1043269,21.4442955 21.4961998,27.0370358 14.5782244,27.0370358 Z" id="Oval-11"></path>
            <path d="M13.724172,40.6643832 L13.724172,28.7404542 C13.724172,28.2700682 14.1065443,27.888745 14.5782244,27.888745 C15.0499046,27.888745 15.4322769,28.2700682 15.4322769,28.7404542 L15.4322769,40.6643832 L19.0683952,40.6643832 C19.5400754,40.6643832 19.9224477,41.0457064 19.9224477,41.5160924 C19.9224477,41.9864784 19.5400754,42.3678016 19.0683952,42.3678016 L9.73859394,42.3678016 C9.2669138,42.3678016 8.88454149,41.9864784 8.88454149,41.5160924 C8.88454149,41.0457064 9.2669138,40.6643832 9.73859394,40.6643832 L13.724172,40.6643832 Z" id="Combined-Shape"></path>
        </g>
    </g>
</svg>