<?xml version="1.0" encoding="UTF-8" standalone="no"?>
<svg width="160px" height="160px" viewBox="0 0 160 160" version="1.1" xmlns="http://www.w3.org/2000/svg" xmlns:xlink="http://www.w3.org/1999/xlink">
    <!-- Generator: Sketch 41.2 (35397) - http://www.bohemiancoding.com/sketch -->
    <title>Slice 1</title>
    <desc>Created with Sketch.</desc>
    <defs>
        <circle id="path-1" cx="80" cy="80" r="80"></circle>
    </defs>
    <g id="Page-1" stroke="none" stroke-width="1" fill="none" fill-rule="evenodd">
        <g id="Rectangle-47-+-Rectangle-47-+-Combined-Shape-+-Rectangle-50-+-Path-2-+-Rectangle-50-+-BANK-+-Path-88-Mask">
            <mask id="mask-2" fill="white">
                <use xlink:href="#path-1"></use>
            </mask>
            <use id="Mask" fill="#5BBA47" xlink:href="#path-1"></use>
            <rect id="Rectangle-47" fill="#3F902E" mask="url(#mask-2)" x="44" y="41" width="66" height="6" rx="1"></rect>
            <rect id="Rectangle-47" fill="#3F902E" mask="url(#mask-2)" x="41" y="50" width="74" height="22" rx="1"></rect>
            <path d="M104,92 L104,114.99172 C104,114.99448 103.999998,114.99724 103.999994,115 L110.999287,115 C111.547788,115 112,114.548356 112,113.991225 L112,76.0087752 C112,75.4492188 111.551965,75 110.999287,75 L45.0007131,75 C44.4522121,75 44,75.451644 44,76.0087752 L44,113.991225 C44,114.550781 44.4480345,115 45.0007131,115 L51.0000055,115 C51.0000018,114.99724 51,114.99448 51,114.99172 L51,92 L63,92 L63,114.99172 C63,114.99448 62.9999981,114.99724 62.9999944,115 L72.0000055,115 C72.0000018,114.99724 72,114.99448 72,114.99172 L72,88.0082804 C72,84.6899988 74.6930342,82 78,82 C81.3137085,82 84,84.6806279 84,88.0082804 L84,114.99172 C84,114.99448 83.9999981,114.99724 83.9999944,115 L92.0000055,115 C92.0000018,114.99724 92,114.99448 92,114.99172 L92,92 L104,92 Z M104,89 L104,88.0082804 C104,84.6806279 101.313708,82 98,82 C94.6930342,82 92,84.6899988 92,88.0082804 L92,89 L104,89 Z M51,89 L51,88.0082804 C51,84.6899988 53.6930342,82 57,82 C60.3137085,82 63,84.6806279 63,88.0082804 L63,89 L51,89 Z" id="Combined-Shape" fill="#3F902E" mask="url(#mask-2)"></path>
            <rect id="Rectangle-50" fill="#3F902E" mask="url(#mask-2)" x="40" y="114" width="32" height="5" rx="1"></rect>
            <polygon id="Path-2" fill="#357329" mask="url(#mask-2)" points="95.4370877 174.041999 150.018702 145.722312 167.134455 112.435713 116.688108 50.8294263 111.625037 50.8294263 111.625037 113.982608 114.877092 118.956547 40 118.956547"></polygon>
            <rect id="Rectangle-50" fill="#3F902E" mask="url(#mask-2)" x="40" y="111" width="76" height="8" rx="1"></rect>
            <text id="BANK" mask="url(#mask-2)" font-family="PFDinTextPro-Bold, PF DinText Pro" font-size="14" font-weight="bold" line-spacing="17" letter-spacing="1.04999995" fill="#5BBA47">
                <tspan x="58.7770001" y="62">BAN</tspan>
                <tspan x="90.0249999" y="62">K</tspan>
            </text>
            <path d="M40.0306752,114.943218 L40,118.863604 L46.6769727,118.890096 C46.6769727,118.890096 63.7464152,118.674713 69.5764885,117.914242 C73.1573759,117.447153 78.8292262,116.575084 84.2904215,114.943218 C85.0520796,114.715626 89.2257343,113.75292 92.5972144,111.933315 C93.9731942,111.190691 97.0599777,109.973916 98.9165987,108.703833 C100.77322,107.43375 102.712818,106.010901 104.50935,104.405611 C108.259178,101.054955 117.97404,89.6767913 117.97404,74.4660656 L117.97404,59.1770553 L124.185245,59.1770553 L114.214045,46 L105.297682,59.1770553 L110.870446,59.1770553 L110.870446,74.9352286 C110.870446,74.9352286 110.327469,85.2368976 105.882631,92.4465902 C105.416162,93.2032212 104.006319,96.0190748 101.964433,98.2605162 C100.96288,99.3599519 98.0592668,102.037029 94.7835006,104.405611 C91.5077344,106.774194 87.2440063,108.662538 85.0394058,109.508922 C80.7123847,111.170141 72.0603005,112.954886 69.5764885,113.281643 C56.9461994,114.943218 40.0306752,114.943218 40.0306752,114.943218 Z" id="Path-88" fill="#FFFFFF" mask="url(#mask-2)"></path>
        </g>
    </g>
</svg>