<?xml version="1.0" encoding="UTF-8" standalone="no"?>
<svg width="160px" height="160px" viewBox="0 0 160 160" version="1.1" xmlns="http://www.w3.org/2000/svg" xmlns:xlink="http://www.w3.org/1999/xlink">
    <!-- Generator: Sketch 41.2 (35397) - http://www.bohemiancoding.com/sketch -->
    <title>Slice 1</title>
    <desc>Created with Sketch.</desc>
    <defs>
        <circle id="path-1" cx="80" cy="80" r="80"></circle>
    </defs>
    <g id="Page-1" stroke="none" stroke-width="1" fill="none" fill-rule="evenodd">
        <g id="Group-44">
            <mask id="mask-2" fill="white">
                <use xlink:href="#path-1"></use>
            </mask>
            <use id="Mask" fill="#5BBA47" xlink:href="#path-1"></use>
            <polygon id="Path-2" fill="#357329" mask="url(#mask-2)" points="103.942581 171.353211 158.524195 143.033524 175.467787 107.302268 122.804616 51.3112123 48.5054937 116.26776"></polygon>
            <polygon id="Star-2" fill="#3F902E" mask="url(#mask-2)" points="81.5 123.509046 74.3174039 128.456053 68.8194863 121.685864 60.534103 124.408911 57.1662724 116.364019 48.4493344 116.642501 47.4844323 107.974657 39.0421341 105.786014 40.5583313 97.1974336 33.0746177 92.7189752 36.9490808 84.9054552 31.0302377 78.5 36.9490808 72.0945448 33.0746177 64.2810248 40.5583313 59.8025664 39.0421341 51.2139864 47.4844323 49.0253428 48.4493344 40.3574986 57.1662724 40.6359807 60.534103 32.5910894 68.8194863 35.3141362 74.3174039 28.5439471 81.5 33.4909536 88.6825961 28.5439471 94.1805137 35.3141362 102.465897 32.5910894 105.833728 40.6359807 114.550666 40.3574986 115.515568 49.0253428 123.957866 51.2139864 122.441669 59.8025664 129.925382 64.2810248 126.050919 72.0945448 131.969762 78.5 126.050919 84.9054552 129.925382 92.7189752 122.441669 97.1974336 123.957866 105.786014 115.515568 107.974657 114.550666 116.642501 105.833728 116.364019 102.465897 124.408911 94.1805137 121.685864 88.6825961 128.456053"></polygon>
            <ellipse id="Oval-28" fill="#5BBA47" opacity="0.900000036" mask="url(#mask-2)" cx="46.5" cy="77.5" rx="2.5" ry="2.5"></ellipse>
            <ellipse id="Oval-28" fill="#5BBA47" opacity="0.900000036" mask="url(#mask-2)" cx="115.5" cy="77.5" rx="2.5" ry="2.5"></ellipse>
            <rect id="Rectangle-45" fill="#FFFFFF" mask="url(#mask-2)" x="60" y="73" width="9.37855927" height="21.0362552" rx="4"></rect>
            <path d="M72,75.3683303 C72,75.3683303 75.1197226,75.4129169 76.0885188,71.8804201 C77.057315,68.3479233 78.5303899,65.5480253 81.9693489,62.4969195 C85.4083078,59.4458137 85.6258473,54.1037505 85.6258473,53.3885513 C85.6258473,52.6733521 88.600671,51.1563178 89.9575209,52.6044784 C91.3143709,54.052639 92.594757,59.0539585 90.9985754,61.0969706 C89.4023938,63.1399826 87.900645,66.7863023 87.900645,67.6599111 C87.900645,68.5335198 86.9245335,69.1077091 90.5779734,69.1077091 C92.6585686,69.1077091 94.1820142,69.10572 96.3678627,69.1077091 C98.5537113,69.1096983 100.861688,69.0111705 101.529933,69.4966644 C102.258281,70.0258243 102.7011,69.7387117 103.449653,70.8554752 C104.198206,71.9722388 104.032002,73.0610837 103.735531,73.8610833 C103.176963,75.3683303 102.088501,75.9073578 102.088501,75.9073578 C102.088501,75.9073578 104.122556,76.8403173 103.735531,79.0239791 C103.348506,81.2076409 100.977108,81.8262116 100.977108,81.8262116 C100.977108,81.8262116 103.212991,83.5932517 102.435677,85.9014902 C101.658364,88.2097288 99.4309037,88.7660959 99.4309037,88.7660959 C99.4309037,88.7660959 100.859229,89.9520206 100.144409,91.9101101 C99.4295894,93.8681996 96.3678627,93.9928716 96.3678627,93.9928716 C96.3678627,93.9928716 87.3558405,94.6330347 83.1117179,94.3129531 C78.8675952,93.9928716 72.0657589,92.7545946 72.0657589,92.7545946 L72,75.3683303 Z" id="Path-85" fill="#FFFFFF" mask="url(#mask-2)"></path>
        </g>
    </g>
</svg>