<?xml version="1.0" encoding="UTF-8" standalone="no"?>
<svg width="160px" height="160px" viewBox="0 0 160 160" version="1.1" xmlns="http://www.w3.org/2000/svg" xmlns:xlink="http://www.w3.org/1999/xlink">
    <!-- Generator: Sketch 41.2 (35397) - http://www.bohemiancoding.com/sketch -->
    <title>Slice 1</title>
    <desc>Created with Sketch.</desc>
    <defs>
        <circle id="path-1" cx="80" cy="80" r="80"></circle>
    </defs>
    <g id="Page-1" stroke="none" stroke-width="1" fill="none" fill-rule="evenodd">
        <g id="Path-2-+-Path-86-+-Path-86-+-Oval-22-+-Oval-26-+-Group-43-+-Combined-Shape-+-Group-46-+-Path-87-Mask">
            <mask id="mask-2" fill="white">
                <use xlink:href="#path-1"></use>
            </mask>
            <use id="Mask" fill="#5BBA47" xlink:href="#path-1"></use>
            <path d="M95.2806859,172.542729 L155.272865,142.657843 L171.729599,108.049577 L116.168399,48.416212 C116.168399,48.416212 105.771497,37.0827335 89.388528,34.4545987 C73.005559,31.826464 59.6833003,35.4716456 48.6385008,44.9054681 C39.1215147,53.0343217 34.8425103,65.6253897 34.7493453,77.8479667 C34.6561803,90.0705438 44.2239981,118.904736 44.2239981,118.904736 L95.2806859,172.542729 Z" id="Path-2" fill="#357329" mask="url(#mask-2)"></path>
            <path d="M-8,105.342711 L52.1617383,88.1945006 C52.1617383,88.1945006 55.0244337,87.2054657 55.0244337,89.6879309 C55.0244337,92.1703961 55.2946276,118.931753 55.2946276,118.931753 C55.2946276,118.931753 55.8405801,121.280248 53.3352579,122.141486 C50.8299358,123.002725 10.7287053,138 10.7287053,138 L-8,105.342711 Z" id="Path-86" fill="#4BA438" mask="url(#mask-2)"></path>
            <path d="M30,94.4702502 L52.0174588,88.1945006 C52.0174588,88.1945006 54.8801541,87.2054657 54.8801541,89.6879309 C54.8801541,92.1703961 55.1503481,118.931753 55.1503481,118.931753 C55.1503481,118.931753 55.6963006,121.280248 53.1909784,122.141486 C51.8810696,122.591785 30,130.988709 30,130.988709 L30,94.4702502 Z" id="Path-86" fill="#3F902E" mask="url(#mask-2)"></path>
            <ellipse id="Oval-22" fill="#FFFFFF" mask="url(#mask-2)" cx="42.4445795" cy="115.439467" rx="3.4445795" ry="3.43946709"></ellipse>
            <ellipse id="Oval-26" fill="#FFFFFF" mask="url(#mask-2)" cx="93.9758497" cy="64.5110787" rx="20.9758497" ry="20.5110787"></ellipse>
            <g id="Group-43" mask="url(#mask-2)">
                <g transform="translate(86.000000, 54.000000)">
                    <text id="ла" fill="none" font-family="PFDinTextPro-Regular, PF DinText Pro" font-size="28" font-weight="normal" letter-spacing="0.9053334">
                        <tspan x="0.64668175" y="21" fill="#5BBA47">ла</tspan>
                    </text>
                    <rect id="Rectangle-8" fill="#5BBA47" fill-rule="evenodd" x="0" y="10.8529412" width="10.346908" height="2.08823529"></rect>
                    <rect id="Rectangle-8" fill="#5BBA47" fill-rule="evenodd" opacity="0.900000036" x="0" y="14.9117647" width="12.933635" height="2.08823529"></rect>
                </g>
            </g>
            <path d="M70.1163749,71.6777868 C67.5676698,74.3412619 63.9775444,76 60,76 C52.2680135,76 46,69.7319865 46,62 C46,54.2680135 52.2680135,48 60,48 C64.7501315,48 68.947725,50.3656964 71.47887,53.9831788 C69.892725,57.1474087 69,60.7194508 69,64.5 C69,67.0033022 69.3914123,69.4151851 70.1163749,71.6777868 Z" id="Combined-Shape" fill="#FFFFFF" mask="url(#mask-2)"></path>
            <g id="Group-46" mask="url(#mask-2)">
                <g transform="translate(54.000000, 55.000000)">
                    <text id="ла" fill="none" font-family="PFDinTextPro-Regular, PF DinText Pro" font-size="16" font-weight="normal" letter-spacing="0.517333329">
                        <tspan x="2.16533334" y="12" fill="#5BBA47">ла</tspan>
                    </text>
                    <rect id="Rectangle-8" fill="#5BBA47" fill-rule="evenodd" x="1.110841" y="6" width="6.889159" height="1"></rect>
                    <rect id="Rectangle-8" fill="#5BBA47" fill-rule="evenodd" x="1.110841" y="9" width="6.889159" height="1"></rect>
                </g>
            </g>
            <path d="M59.0187458,113.062896 L59.1806412,95.4324891 C59.1806412,95.4324891 58.4457213,93.4394717 62.8756902,91.9274541 C67.305659,90.4154365 74.9633103,88.9847926 77.6350101,90.1449008 C80.3067099,91.305009 82.1140384,92.9550921 86.4596512,92.9550921 L100.000005,92.9550921 C100.000005,92.9550921 103.738084,93.1361309 104.308126,95.4116131 C104.878168,97.6870952 103.580875,99.7406103 101.882677,99.7406103 C100.18448,99.7406103 89.8630385,99.9625774 87.6161011,99.9625774 L82.905075,99.9625774 C82.905075,99.9625774 85.1107423,103.192816 89.6991981,103.192816 C94.287654,103.192816 101.24106,103.006637 101.24106,103.006637 C101.24106,103.006637 104.671506,102.37141 106.506462,99.9625774 C107.421671,98.7611396 107.687504,97.2062642 107.571321,95.7219329 C107.454562,94.2302415 107.041191,93.4593493 106.351205,92.5988939 C105.638446,91.71004 104.043129,90.7745886 104.043129,90.7745886 L110.705123,87.262311 C110.705123,87.262311 111.896155,86.6721113 113.66587,87.262311 C115.435585,87.8525107 116.126488,89.178215 116.126488,89.178215 C116.126488,89.178215 117.887606,88.012344 120.047078,88.5280722 C122.206549,89.0438003 122.679843,90.1768538 122.679843,90.1768538 C122.679843,90.1768538 124.145698,89.1453652 125.72377,88.9693657 C126.603937,88.8712023 127.717757,89.1039813 128.432877,89.8654747 C129.374706,90.8683776 129.341835,91.6802119 129.476567,92.4369985 C129.627554,93.2850823 129.643733,94.0067139 128.772222,95.063964 C127.123019,97.0646501 100.000005,113.935427 100.000005,113.935427 C100.000005,113.935427 96.9521111,116.951793 91.2883291,115.44361 C85.6245471,113.935427 72.7436395,111.077547 72.7436395,111.077547 C72.7436395,111.077547 67.8245762,110.265088 65.3501332,111.400912 C62.8756902,112.536736 59,114.185512 59,114.185512 L59.0187458,113.062896 Z" id="Path-87" fill="#5BBA47" mask="url(#mask-2)"></path>
        </g>
    </g>
</svg>