<?xml version="1.0" encoding="UTF-8" standalone="no"?>
<svg width="144px" height="103px" viewBox="0 0 144 103" version="1.1" xmlns="http://www.w3.org/2000/svg" xmlns:xlink="http://www.w3.org/1999/xlink">
    <!-- Generator: Sketch 42 (36781) - http://www.bohemiancoding.com/sketch -->
    <title>car</title>
    <desc>Created with Sketch.</desc>
    <defs></defs>
    <g id="Page-1" stroke="none" stroke-width="1" fill="none" fill-rule="evenodd">
        <g id="car">
            <path d="M9.68656825,37.3473282 L0.668613906,43.8239982 C0.668613906,43.8239982 -1.39340567,47.1587228 1.72493787,49.6636579 C2.75380512,50.4901369 6.99177793,53.3466613 12.4337958,56.9321778 C23.485724,64.2138282 56.8348846,84.738927 65.9586564,90.0889569 C73.5462381,94.5381902 80.7157167,98.6166419 83.4874047,99.7539764 C89.5919398,102.258911 99.5926046,103.873589 106.265101,102.367275 C107.859944,102.00724 109.981497,101.337276 112.389637,100.443616 C113.202924,100.141805 115.279423,99.1810816 117.632472,98.0232011 C120.657923,96.5344476 129.382946,91.3864956 134.156879,88.2974787 C138.930813,85.2084619 140.2695,83.9069026 140.980728,83.1952989 C142.097883,82.0775539 142.836827,81.1012737 143.269307,80.207929 C144.011477,78.6748785 143.851131,77.3860666 143.150856,76.0457005 C142.162533,74.1539928 122.085182,84.5502711 111.013919,90.4683273 C106.759257,92.7426234 98.8554315,90.9100382 98.8554315,90.9100382 L32.0782423,44.7016833 L9.68656825,37.3473282 Z" id="Path-7" fill="#838B8F"></path>
            <path d="M16.4256276,48.940478 C16.4256276,48.940478 9.29019699,44.6946254 7.47442199,40.7486859 C5.65864698,36.8027465 5.476467,34.4088938 6.69319978,33.1535633 C7.90993257,31.8982328 9.00157799,29.7793244 8.01895366,28.8999617 C7.03632933,28.0205989 6.72619301,26.5414097 6.72619301,24.5487806 C6.72619301,22.5561515 6.8349272,20.7202235 8.72673008,19.6121231 C10.618533,18.5040227 42.3769513,0.71385989 42.3769513,0.71385989 C42.3769513,0.71385989 43.8519394,1.1832059e-16 45.2117259,0 C46.5715123,0 47.3633725,0.151653008 48.2815912,0.476799305 C50.7965357,1.36735499 55.4652205,4.27579563 55.4652205,4.27579563 C55.4652205,4.27579563 66.9732577,5.02199118 70.4249229,6.4925704 C73.8765881,7.96314962 97.0049825,19.9528377 97.0049825,19.9528377 C97.0049825,19.9528377 98.3889895,20.7161046 99.7158481,21.6509688 C101.042707,22.5858329 102.004539,23.4745676 102.476177,23.8184565 C103.477806,24.5487806 119.989949,41.8323163 119.588634,41.0998807 C119.18732,40.367445 115.853465,36.8594992 115.853465,36.8594992 L117.971077,35.7159592 C117.971077,35.7159592 118.590326,35.541059 119.076884,35.7159592 C119.563442,35.8908593 119.637611,36.0401783 119.87876,36.3337576 C120.538464,37.1368926 121.379805,38.3333768 121.379805,38.3333768 C121.379805,38.3333768 121.836714,39.0277609 121.608259,39.4740221 C121.379805,39.9202832 120.33972,40.9030935 120.33972,40.9030935 C120.33972,40.9030935 130.560512,47.5375692 132.700329,49.4216828 C134.840145,51.3057964 139.541124,56.0543572 140.623975,59.2632946 C141.706825,62.4722319 140.865258,64.4635203 139.697103,65.6343366 C138.528949,66.8051529 137.629987,67.2860882 137.629987,69.0718083 C137.629987,70.8575283 137.657672,72.9406807 137.657672,72.9406807 C137.657672,72.9406807 137.856415,72.9872712 139.112126,72.0323804 C140.367836,71.0774897 141.877659,68.8961688 141.877659,68.8961688 C141.877659,68.8961688 141.696021,72.2264828 141.696021,72.8436381 C141.696021,73.4607934 142.422123,74.6998323 142.422123,75.3428806 C142.422123,75.9859289 142.191643,77.7914628 140.169092,79.7890556 C138.146541,81.7866483 124.461123,91.2722869 115.988287,94.5516984 C107.51545,97.8311099 97.9964513,97.2042728 95.8496573,96.1068577 C93.7028633,95.0094425 91.6316955,92.9467794 91.6316955,92.9467794 C91.6316955,92.9467794 91.0147943,88.0714046 88.8344261,83.4762263 C87.465653,80.5915045 85.1358697,77.660975 82.7543939,76.2077086 C76.5793789,72.4394813 75.3884911,74.7468901 73.2975165,75.7873405 C71.2065418,76.8277909 69.2951794,81.3106665 69.2951794,81.3106665 L35.9741814,60.6421559 C35.9741814,60.6421559 36.9999859,56.8909605 34.1794094,51.1855626 C31.3588329,45.4801647 25.7562382,42.9170888 21.9395905,44.2407867 C18.1229427,45.5644846 16.4256276,48.940478 16.4256276,48.940478 Z" id="Path-8" fill="#FFFFFF"></path>
            <path d="M16.957287,50.2878621 C16.957287,50.2878621 9.29019699,44.6946254 7.47442199,40.7486859 C5.65864698,36.8027465 5.476467,34.4088938 6.69319978,33.1535633 C7.90993257,31.8982328 9.00157799,29.7793244 8.01895366,28.8999617 C7.03632933,28.0205989 6.72619301,26.5414097 6.72619301,24.5487806 C6.72619301,22.5561515 6.8349272,20.7202235 8.72673008,19.6121231 C10.618533,18.5040227 42.3769513,0.71385989 42.3769513,0.71385989 C42.3769513,0.71385989 43.8519394,1.1832059e-16 45.2117259,0 C46.5715123,0 47.3633725,0.151653008 48.2815912,0.476799305 C50.7965357,1.36735499 55.4652205,4.27579563 55.4652205,4.27579563 C55.4652205,4.27579563 66.9732577,5.02199118 70.4249229,6.4925704 C73.8765881,7.96314962 97.0049825,19.9528377 97.0049825,19.9528377 C97.0049825,19.9528377 98.3889895,20.7161046 99.7158481,21.6509688 C101.042707,22.5858329 102.004539,23.4745676 102.476177,23.8184565 C103.477806,24.5487806 84.3020303,35.2394947 81.7757548,36.2132986 C79.2494792,37.1871026 69.279649,40.6353818 69.279649,40.6353818 C69.279649,40.6353818 81.7143085,56.7597741 82.7543939,57.9641388 C83.7944794,59.1685035 86.782615,60.7070012 89.2920096,59.8930587 C91.8014043,59.0791162 101.650593,53.9662514 103.675169,53.2675892 C105.699746,52.5689271 110.016067,49.8510572 110.016067,49.8510572 C110.016067,49.8510572 116.039154,45.1912082 117.081265,44.5204656 C118.123377,43.8497229 119.989949,41.8323163 119.588634,41.0998807 C119.18732,40.367445 115.853465,36.8594992 115.853465,36.8594992 L117.971077,35.7159592 C117.971077,35.7159592 118.590326,35.541059 119.076884,35.7159592 C119.563442,35.8908593 119.637611,36.0401783 119.87876,36.3337576 C120.538464,37.1368926 121.379805,38.3333768 121.379805,38.3333768 C121.379805,38.3333768 121.836714,39.0277609 121.608259,39.4740221 C121.379805,39.9202832 120.33972,40.9030935 120.33972,40.9030935 C120.33972,40.9030935 130.560512,47.5375692 132.700329,49.4216828 C134.840145,51.3057964 139.541124,56.0543572 140.623975,59.2632946 C141.706825,62.4722319 140.865258,64.4635203 139.697103,65.6343366 C138.528949,66.8051529 137.629987,67.2860882 137.629987,69.0718083 C137.629987,70.8575283 137.657672,72.9406807 137.657672,72.9406807 C137.657672,72.9406807 137.856415,72.9872712 139.112126,72.0323804 C140.367836,71.0774897 141.877659,68.8961688 141.877659,68.8961688 C141.877659,68.8961688 141.696021,72.2264828 141.696021,72.8436381 C141.696021,73.4607934 142.422123,74.6998323 142.422123,75.3428806 C142.422123,75.7813669 142.314957,76.7603741 141.605511,77.9722216 C141.274541,78.5375709 140.812492,79.1535954 140.169092,79.7890556 C139.512763,80.4372851 137.628292,81.8740336 135.092338,83.6313457 C129.813463,87.2893902 121.711642,92.3364734 115.988287,94.5516984 C107.51545,97.8311099 97.9964513,97.2042728 95.8496573,96.1068577 C93.7028633,95.0094425 91.7352387,93.3993088 91.7352387,93.3993088 C91.7352387,93.3993088 91.0147943,88.0714046 88.8344261,83.4762263 C87.465653,80.5915045 85.1358697,77.660975 82.7543939,76.2077086 C76.5793789,72.4394813 75.3884911,74.7468901 73.2975165,75.7873405 C71.2065418,76.8277909 69.2951794,81.3106665 69.2951794,81.3106665 L35.9741814,60.6421559 C35.9741814,60.6421559 36.9999859,56.8909605 34.1794094,51.1855626 C31.3588329,45.4801647 26.0342124,43.1967677 22.2175647,44.5204656 C18.400917,45.8441635 16.957287,50.2878621 16.957287,50.2878621 Z" id="Path-8" fill="#262A2E"></path>
            <path d="M122.30137,85.2028699 L122.395991,89.6335878 C122.395991,89.6335878 126.958426,87.2634778 129.871067,85.4586066 C132.783707,83.6537353 134.451073,82.153979 134.451073,82.153979 L134.410763,78.2328244 C134.410763,78.2328244 131.26703,80.3769157 128.895692,81.8747292 C126.524354,83.3725426 122.30137,85.2028699 122.30137,85.2028699 Z" id="Path-61" fill="#C5C5C5"></path>
            <path d="M19.8602043,28.7543284 C19.8602043,28.7543284 18.7114771,28.4064351 17.459737,28.4164721 C16.207997,28.4265092 15.2259017,28.7708175 14.9384224,28.9738387 C14.3130809,29.4154622 14.23878,30.787763 17.459737,32.69221 C20.680694,34.5966571 52.5236745,52.2899389 52.5236745,52.2899389 L82.2983733,68.4987064 C82.2983733,68.4987064 86.4739664,70.128404 82.1697201,67.1428905 C77.8654738,64.1573769 74.821162,62.0039202 75.4271333,62.0039202 C76.0331046,62.0039202 77.476623,61.8147769 78.2306177,62.6433632 C78.9846125,63.4719495 81.2364781,61.0923306 79.223127,58.6939131 C77.2097759,56.2954956 74.855566,56.3475534 73.6407323,56.9540265 C72.4258987,57.5604996 69.3723355,58.5675284 69.3723355,58.5675284 L30.4918777,34.2328311 C30.4918777,34.2328311 27.7127161,32.1981141 25.112148,30.858041 C22.5115799,29.5179679 19.8602043,28.7543284 19.8602043,28.7543284 Z" id="Path-16" fill="#34393F"></path>
            <path d="M6.70684932,22.0152672 C6.70684932,22.0152672 7.92547897,23.4635905 8.90071605,24.1740332 C9.46889443,24.5879411 10.3836846,25.0687658 11.0516519,25.4529042 C11.5302022,25.7281116 11.5448638,25.9856803 11.0516519,25.9636333 C10.4516633,25.9368133 9.62364798,25.8773669 8.90071605,25.7456044 C7.58350844,25.5055285 6.70684932,24.884476 6.70684932,24.884476 L6.70684932,22.0152672 Z" id="Path-17" fill="#34393F"></path>
            <path d="M15.649771,17.3238491 L12.3732878,19.3333485 C12.3732878,19.3333485 11.0265597,21.1624954 12.5958688,21.857462 C13.6402423,22.3199615 18.7126853,23.8437275 22.3737462,24.8113808 C24.2139129,25.2977544 27.2053178,25.7133247 28.0229968,25.6436322 C28.7721374,25.5797813 29.4807234,25.3779774 30.1639385,25.3390421 C32.9193549,25.1820156 35.779865,25.1384682 38.1480497,25.3390421 C39.3179508,25.4381272 41.1339521,25.6576893 43.9594729,26.0227921 C46.7849938,26.3878948 48.4877498,27.1622453 50.8904842,27.9323077 C52.6621967,28.5001313 56.2563737,30.4352652 59.1191112,32.5183218 C61.9818486,34.6013784 63.1299489,36.0121835 63.9200286,36.8997763 C69.5548441,43.2300514 76.5060727,52.3426332 77.4678185,53.3208448 C78.7323232,54.6069989 85.4720658,63.5316807 85.4720658,63.5316807 C85.4720658,63.5316807 91.0788562,69.4836052 95.8524144,73.0030387 C100.625973,76.5224721 106.709128,77.8512694 109.192851,78.2994795 C111.676573,78.7476895 115.736876,79.5529505 121.554819,76.5224721 C123.689375,75.4106137 127.099413,73.4290063 130.161142,71.3054746 C133.222871,69.1819429 134.410718,68.05945 135.763983,66.4193545 C136.773242,65.1961792 137.349683,64.1669112 137.658309,63.2984513 C137.986194,62.3758001 138.116955,62.0309126 137.887632,59.7853835 C137.658309,57.5398543 136.966824,57.1624641 136.761899,56.67633 C136.177808,55.2907204 135.322243,53.9542021 134.241008,52.6300788 C132.624367,50.6502765 130.210738,48.7905254 128.135753,47.1319546 C126.549549,45.8640742 124.042172,44.0638321 122.141209,42.7474205 C120.240246,41.4310089 120.817853,42.0828352 120.449416,41.7711472 C117.800731,39.5304327 120.449416,40.6845339 120.449416,40.6845339 L121.554819,39.2975239 C121.554819,39.2975239 121.981316,38.3174522 121.215366,37.4978632 C120.449416,36.6782743 118.91592,35.3863616 118.91592,35.3863616 C118.91592,35.3863616 118.260622,35.0451793 117.578676,35.4881617 C116.896729,35.931144 116.172038,36.7698764 116.172038,36.7698764 L119.260918,40.0412548 C119.260918,40.0412548 120.085763,41.4337152 119.305093,42.2160907 C118.814649,42.707606 114.945315,45.9046371 110.153501,48.9005175 C105.361687,51.8963978 103.711373,52.8152171 101.872875,53.5776771 C100.741271,54.0469745 99.529808,54.8708831 98.3118128,55.4569078 C97.0938175,56.0429324 90.1787961,59.4291813 90.1787961,59.4291813 C90.1787961,59.4291813 85.5465147,60.5703053 83.4762599,57.9413595 C81.4060051,55.3124137 69.5348549,40.5208972 69.5348549,40.5208972 C69.5348549,40.5208972 76.688787,38.5158263 83.467941,35.6009292 C85.6644197,34.6564884 87.8215546,33.6165348 89.6832659,32.5183218 C97.2909136,28.0306134 101.872875,23.6607288 101.872875,23.6607288 L97.7264311,20.1673765 L71.752239,7.17704783 C71.752239,7.17704783 68.7254919,5.89018921 67.0800347,5.65744403 C65.4345775,5.42469885 63.6569937,5.1887553 63.6569937,5.1887553 L33.7897921,21.497299 L24.637105,21.6511353 L56.1835939,4.21342364 L48.172365,1.04693218 C48.172365,1.04693218 46.994965,0.651974485 45.3337166,0.834376683 C43.6724682,1.01677888 43.0285995,1.69161446 42.1973348,2.07062404 C39.8972862,3.11931574 15.649771,17.3238491 15.649771,17.3238491 Z" id="Path-25" fill="#34393F"></path>
            <path d="M19.6327646,20.2495141 L16.5463114,19.4322937 C16.5463114,19.4322937 15.5903938,18.8670479 16.7475235,18.0216182 C17.9046532,17.1761886 44.030007,2.13684975 44.030007,2.13684975 C44.030007,2.13684975 44.7818227,1.86276529 45.6995764,1.76791243 C46.6173301,1.67305958 47.2230029,1.77381837 47.6450395,1.88296634 C48.6267169,2.13684975 49.4192677,2.86329144 49.4192677,2.86329144 C49.4192677,2.86329144 47.9728307,2.49911615 47.2708147,2.49911615 C46.9264976,2.49911615 46.1983839,2.45947884 45.4302845,2.68926006 C44.6621851,2.91904129 43.7790803,3.44790931 42.6056207,4.08477397 C40.3026012,5.33467788 18.7023973,18.0394346 18.7023973,18.0394346 C18.7023973,18.0394346 18.2202342,18.2751391 18.2140371,18.504525 C18.2078401,18.7339108 18.6207018,18.9338766 18.7023973,18.9895694 C19.1486826,19.2938072 20.0864989,19.8301929 20.0864989,19.8301929 C20.0864989,19.8301929 20.3370922,20.0514823 20.1653469,20.1949732 C19.9936016,20.3384641 19.6327646,20.2495141 19.6327646,20.2495141 Z" id="Path-53" fill="#262A2F"></path>
            <path d="M32.7452055,33.0038734 C32.7452055,33.0038734 37.2462156,30.8599132 40.8965602,31.0720115 C44.5469047,31.2841098 48.1318753,31.9335804 50.7975938,33.1243838 C53.4633123,34.3151871 54.9874749,35.0668505 54.9874749,35.0668505 L53.3526422,45.4792695 L32.7452055,33.0038734 Z" id="Path-55" fill="#131517"></path>
            <path d="M58.549188,37.3473282 L56.8109589,47.7794137 L72.3249575,57.7901876 C72.3249575,57.7901876 73.5109901,57.3045052 74.1183408,57.1363247 C74.7256915,56.9681442 75.9765186,56.7790398 75.9765186,56.7790398 C75.9765186,56.7790398 71.370741,50.4887712 67.989262,46.8779808 C64.607783,43.2671905 58.549188,37.3473282 58.549188,37.3473282 Z" id="Path-56" fill="#131517"></path>
            <path d="M114.341284,72.358107 L100.496087,60.6643384 C100.496087,60.6643384 99.5616786,59.4804844 101.164536,58.3938735 C102.767394,57.3072626 116.69378,48.6098231 116.69378,48.6098231 C116.69378,48.6098231 117.33767,48.0989551 118.327872,47.9895882 C119.318074,47.8802213 119.644905,47.9680128 120.022555,48.2314123 C121.164306,49.0277503 129.825564,61.7704344 129.825564,61.7704344 L120.150346,50.800891 C120.150346,50.800891 119.654328,50.2989473 118.903054,50.2192728 C118.15178,50.1395983 117.968417,50.278405 117.465992,50.6280748 C116.05828,51.607791 103.743672,59.2040514 103.743672,59.2040514 C103.743672,59.2040514 102.499978,59.937746 103.121825,60.8540902 C103.743672,61.7704344 114.341284,72.358107 114.341284,72.358107 Z" id="Path-56" fill="#262A2F"></path>
            <path d="M9.07440837,42.851145 C9.07440837,42.851145 8.22228341,44.1404648 9.02131905,44.9928888 C9.3704327,45.3653288 10.6897209,46.7642619 12.1461498,47.9720719 C13.6025786,49.1798818 16.7946386,51.5303662 16.7946386,51.5303662 L16.7946386,49.1707935 C16.7946386,49.1707935 14.4865343,47.6212614 12.7374903,46.121377 C10.9884462,44.6214925 9.07440837,42.851145 9.07440837,42.851145 Z" id="Path-63" fill="#131517"></path>
            <path d="M35.5068493,60.3058639 C35.5068493,60.3058639 35.784346,62.1047064 36.9384673,62.751506 C38.0925886,63.3983056 69.0138815,82.6201748 69.0138815,82.6201748 L69.1369069,80.66184 L35.9986749,60.148855 L35.5068493,60.3058639 Z" id="Path-64" fill="#131517"></path>
            <path d="M102.74071,24.4363449 C102.74071,24.4363449 99.8570016,26.7607467 89.1081463,33.2798389 C87.7204008,34.1214952 86.4312749,34.762927 85.1203756,35.3494043 C83.8094763,35.9358816 81.8635385,36.7040934 80.4032914,37.303301 C77.7686878,38.3844019 69.4356164,40.8753581 69.4356164,40.8753581 L82.9479941,58.3220306 C82.9479941,58.3220306 83.6934101,59.385558 85.8224969,59.5894307 C87.9515837,59.7933033 89.4793652,58.8672873 89.4793652,58.8672873 C89.4793652,58.8672873 98.8237181,54.8445013 106.411419,50.3777391 C113.99912,45.9109769 117.799348,42.8533295 117.799348,42.8533295 C117.799348,42.8533295 118.791743,42.4489058 118.957779,41.272689 C119.123816,40.0964723 118.098688,39.6049515 118.098688,39.6049515 C118.098688,39.6049515 109.547861,30.7287552 105.196206,26.4428586 C100.844552,22.156962 102.74071,24.4363449 102.74071,24.4363449 Z" id="Path-66" fill="#131517"></path>
            <path d="M92.4441726,31.3942893 L90.7968396,58.3698161 C90.7968396,58.3698161 97.3424907,55.2399099 100.640239,53.5363276 C103.937987,51.8327454 106.67763,50.165965 106.67763,50.165965 L106.67763,28.0649958 L102.700668,24.468503 C102.700668,24.468503 99.2606772,26.8503819 97.7736146,27.980718 C96.2865519,29.1110541 92.4441726,31.3942893 92.4441726,31.3942893 Z" id="Path-65" fill="#3D434A"></path>
            <path d="M137.281558,67.610941 C137.281558,67.610941 131.695723,72.0628412 128.608548,74.1640064 C125.521373,76.2651716 115.2,81.2906812 115.2,81.2906812 L115.2,86.7788609 C115.2,86.7788609 124.08018,82.9214474 130.548624,79.0658544 C137.017068,75.2102613 139.462589,72.3116426 139.462589,72.3116426 L137.281558,67.610941 Z" id="Path-60" fill="#34393F"></path>
            <path d="M114.74605,81.4456005 C114.74605,81.4456005 113.336908,82.0204293 111.454837,82.5338212 C109.572766,83.0472131 107.778589,83.3148783 106.943548,83.3148783 C105.061279,83.3148783 103.758904,83.3148783 103.758904,83.3148783 L103.769627,88.9901565 C103.769627,88.9901565 106.840716,89.2984524 108.682695,88.9283998 C110.524673,88.5583471 115.425688,86.4806075 115.425688,86.4806075 C115.425688,86.4806075 115.79731,86.3596255 115.980087,85.979137 C116.105182,85.7187245 116.043583,85.3099941 116.043583,84.9529452 C116.043583,84.295979 116.043583,82.9347159 116.043583,82.2894722 C116.043583,82.0716626 115.993256,81.514213 115.541132,81.3618028 C115.089009,81.2093927 114.74605,81.4456005 114.74605,81.4456005 Z" id="Path-57" fill="#FFFFFF"></path>
            <path d="M103.964606,83.2605161 L99.0591642,81.9354528 C99.0591642,81.9354528 97.2699162,81.5329635 96.5951141,81.9872895 C96.2398588,82.2264732 95.8688624,82.8137623 95.8684935,83.4970614 C95.8681245,84.1803605 96.1912899,84.8096557 96.6920123,85.3047198 C97.0223777,85.631352 97.7478735,86.3445969 98.6257944,86.8652824 C99.014371,87.095743 100.097962,87.7687 101.192898,88.2224049 C102.287834,88.6761098 103.964606,89.1356153 103.964606,89.1356153 L103.964606,83.2605161 Z" id="Path-58" fill="#939393"></path>
            <path d="M112.031863,82.4402032 C112.031863,82.4402032 110.179957,83.4592547 108.627302,83.7034451 C107.074647,83.9476355 105.403914,84.0473149 105.128686,84.0729561 C105.04931,84.0803511 104.883398,84.1587833 104.839144,84.2880277 C104.794889,84.4172721 104.876203,84.5807006 104.839144,84.6647103 C104.762809,84.837754 104.839144,86.7959203 104.839144,86.7959203 C104.839144,86.7959203 104.826615,87.4419154 104.993281,87.7680421 C105.159946,88.0941689 105.72127,88.2058902 105.798839,88.2144344 C106.418538,88.2826931 107.68403,88.2144344 108.227904,88.2144344 C109.744393,88.2144344 112.998105,87.6134433 112.998105,87.6134433 C112.998105,87.6134433 111.549904,88.2649248 110.234156,88.6522743 C109.459359,88.8803705 107.251427,89.09424 106.402207,89.09424 C105.552988,89.09424 104.960961,89.0786652 104.450248,88.9524974 C103.939535,88.8263296 103.776741,88.5296983 103.601981,88.3123401 C103.427222,88.0949818 103.412062,87.6134433 103.412062,87.6134433 L103.379079,84.5883415 C103.379079,84.5883415 103.417954,83.9961958 103.601981,83.7034451 C103.786009,83.4106945 104.450248,83.3576679 104.450248,83.3576679 C104.450248,83.3576679 106.748771,83.4555634 107.758729,83.3576679 C108.075533,83.3269599 108.832913,83.3083268 109.42287,83.1831696 C110.012827,83.0580123 112.031863,82.4402032 112.031863,82.4402032 Z" id="Path-59" fill="#C6C6C6"></path>
            <path d="M141.474285,62.1145038 C141.474285,62.1145038 142.054849,63.7983396 142.054849,65.2494557 C142.054849,66.7005719 142.011301,69.2983196 142.011301,69.2983196 L139.386273,72.4030065 C139.386273,72.4030065 137.774767,73.5950357 137.774767,71.9526997 C137.774767,71.0392593 137.747825,69.8080719 137.72391,68.8951528 C137.704827,68.166673 137.968575,67.3721333 138.338663,66.9954627 C138.846824,66.4782634 139.523128,65.757535 139.87126,65.2494557 C140.472933,64.3713479 141.474285,62.1145038 141.474285,62.1145038 Z" id="Path-62" fill="#FFFFFF"></path>
            <path d="M6.73495811,26.6278401 C6.73495811,26.6278401 6.29407296,28.1259991 6.17267325,29.7709469 C6.05127354,31.4158948 6.17267325,33.7641999 6.17267325,33.7641999 L8.55472369,30.9052367 C8.55472369,30.9052367 8.91300558,30.0280899 8.40944885,29.2189721 C8.21674359,28.9093322 8.04500942,28.8188805 7.54606806,28.1259991 C7.04712671,27.4331176 6.73495811,26.6278401 6.73495811,26.6278401 Z" id="Path-71" fill="#CCD0D5"></path>
            <path d="M39.2395671,42.5192551 L43.6364183,44.8627484" id="Path-72" stroke="#131517" stroke-width="2" stroke-linecap="round"></path>
            <path d="M56.5359459,52.4510986 L60.6008019,54.6909927" id="Path-72" stroke="#131517" stroke-width="2" stroke-linecap="round"></path>
            <path d="M57.1587976,32.6607953 L55.7741082,42.1714394 L55.0444553,47.112788 C55.0444553,47.112788 53.6340985,51.7798155 53.6340985,51.7798155 C53.6340985,51.7798155 53.2857036,53.4041061 53.2857036,55.2525269 C53.2857036,57.1009477 52.9234216,69.8250573 52.9234216,69.8250573" id="Path-73" stroke="#131517"></path>
            <path d="M29.0359952,25.6264706 C29.0359952,25.6264706 38.2200602,25.0020733 43.235844,25.6291015 C48.2516278,26.2561297 53.0394747,28.217018 56.6779568,30.7137304 C60.3164388,33.2104428 53.2844261,29.1606297 50.3115666,28.1205521 C47.338707,27.0804745 43.6840904,26.0433201 37.5013404,26.0433201 C31.3185905,26.0433201 29.0359952,25.6264706 29.0359952,25.6264706 Z" id="Path-74" fill="#D8D8D8"></path>
            <polygon id="Path-67" fill="#5BBA47" points="90.3934683 34.7766079 94.8009846 32.3438908 95.7783478 33.8714543 91.544497 36.2528579"></polygon>
            <path d="M91.9921555,34.7870084 L94.5060409,33.4638344" id="Path-68" stroke="#FFFFFF"></path>
            <path d="M92.9886471,58.7697763 C93.3777942,58.4400219 95.7898697,55.7035268 97.9159642,54.4489248 C100.042059,53.1943228 103.642643,52.0364488 105.267904,51.6108605 C106.893166,51.1852722 102.169783,52.0944508 100.983138,52.492655 C99.7964933,52.8908592 97.9159642,53.6940414 96.7042773,54.6536052 C95.4925904,55.613169 93.0702251,58.1117984 92.8748066,58.2873918 C92.6793881,58.4629853 92.5995,59.0995307 92.9886471,58.7697763 Z" id="Path-69" stroke="#25282B" fill="#25282B" transform="translate(99.158464, 55.181546) rotate(-5.000000) translate(-99.158464, -55.181546) "></path>
            <g id="Group-9" transform="translate(13.383727, 40.099237)">
                <path d="M15.5971195,26.4694269 C20.8264239,26.4694269 25.0656127,21.4531364 25.0656127,15.2652284 C25.0656127,9.07732048 19.4715714,3.19084813 14.242267,3.19084813 C9.01296263,3.19084813 6.12862635,9.07732048 6.12862635,15.2652284 C6.12862635,21.4531364 10.3678151,26.4694269 15.5971195,26.4694269 Z" id="Oval" fill="#131517" transform="translate(15.597119, 14.830138) rotate(-30.000000) translate(-15.597119, -14.830138) "></path>
                <ellipse id="Oval" fill="#191B1E" transform="translate(13.309376, 15.501785) rotate(-30.000000) translate(-13.309376, -15.501785) " cx="13.3093762" cy="15.5017846" rx="8.87671233" ry="11.2041985"></ellipse>
                <ellipse id="Oval" fill="#B8BBBD" transform="translate(12.879408, 15.444348) rotate(-30.000000) translate(-12.879408, -15.444348) " cx="12.8794077" cy="15.4443475" rx="6.4297783" ry="8.11567498"></ellipse>
                <ellipse id="Oval" fill="#262A2F" transform="translate(12.639138, 15.247934) rotate(-30.000000) translate(-12.639138, -15.247934) " cx="12.6391383" cy="15.2479338" rx="5.21133717" ry="6.57775693"></ellipse>
                <ellipse id="Oval" fill="#C3C7C9" transform="translate(12.620697, 15.284847) rotate(-30.000000) translate(-12.620697, -15.284847) " cx="12.6206969" cy="15.2848468" rx="1.5761156" ry="1.98937528"></ellipse>
                <path d="M10.2075387,8.64668187 L14.5458303,21.8487031" id="Path-75" stroke="#B8BBBD" stroke-width="2"></path>
                <path d="M14.4588006,9.45621342 L10.2942616,21.0309838" id="Path-76" stroke="#B8BBBD" stroke-width="2"></path>
                <path d="M17.8935071,13.4718931 L6.45936367,16.9626822" id="Path-81" stroke="#B8BBBD" stroke-width="2"></path>
                <path d="M18.8041879,19.0158596 L7.09582605,11.576897" id="Path-82" stroke="#B8BBBD" stroke-width="2"></path>
            </g>
            <path d="M107.91556,49.2256458 C108.239579,48.9510789 110.247971,46.6725621 112.018244,45.6279297 C113.788516,44.5832972 116.786508,43.6192043 118.139767,43.2648423 C119.493025,42.9104802 115.560146,43.6674991 114.572097,43.9990601 C113.584048,44.3306211 112.018244,44.9993832 111.009344,45.7983549 C110.000444,46.5973266 107.983485,48.6777867 107.820771,48.8239929 C107.658058,48.9701991 107.59154,49.5002126 107.91556,49.2256458 Z" id="Path-69" stroke="#25282B" fill="#25282B" transform="translate(113.052799, 46.237939) rotate(-8.000000) translate(-113.052799, -46.237939) "></path>
            <path d="M29.8717187,65.2505464 L30.5439699,67.477829 C30.5439699,67.477829 33.3477885,65.1650412 34.5835787,63.4097501 C35.8015358,61.6797889 36.0905264,61.3385698 37.1762866,59.1553911 C38.2051041,57.0867093 38.3798243,54.5412308 38.3798243,52.4656924 C38.3798243,48.6841592 36.4849036,45.6356006 34.502638,43.7188332 C32.5203723,41.8020657 30.77531,40.8720777 27.8287591,40.8720777 C25.7673713,40.8720777 24.462231,41.3945922 22.8070772,42.5511615 C22.3730721,42.8544306 21.8544088,43.5980018 21.9440075,43.8001017 C22.0336062,44.0022016 22.3916444,43.6531023 22.6431673,43.6495083 C22.9172968,43.6455912 23.408787,43.3171204 23.8193497,43.1260819 C24.2299123,42.9350434 24.7357745,42.7046187 24.9357318,42.5955973 C25.6122125,42.2267643 26.3553247,41.9426437 28.3384419,42.1541843 C29.688372,42.2981824 31.5595467,43.2349319 32.9139471,44.4748464 C34.2683474,45.7147608 35.8519162,48.306089 36.1051901,49.9088233 C36.5093218,52.4661969 36.767725,55.4263219 35.0490943,58.7065628 C34.3817575,59.9802662 33.4710921,61.4021297 32.6077369,62.5044098 C31.7443817,63.6066899 29.8717187,65.2505464 29.8717187,65.2505464 Z" id="Oval" fill="#34393F" transform="translate(30.156819, 54.174953) rotate(-40.000000) translate(-30.156819, -54.174953) "></path>
            <g id="Group-9" transform="translate(64.701370, 69.705494)">
                <path d="M16.2127953,27.4375957 C21.6485195,27.4375957 26.0550447,22.2892975 26.0550447,15.9385499 C26.0550447,9.58780227 20.240186,3.54642276 14.8044618,3.54642276 C9.36873747,3.54642276 6.37054581,9.58780227 6.37054581,15.9385499 C6.37054581,22.2892975 10.777071,27.4375957 16.2127953,27.4375957 Z" id="Oval" fill="#131517" transform="translate(16.212795, 15.492009) rotate(-30.000000) translate(-16.212795, -15.492009) "></path>
                <ellipse id="Oval" fill="#191B1E" transform="translate(13.834746, 16.181331) rotate(-30.000000) translate(-13.834746, -16.181331) " cx="13.8347463" cy="16.1813313" rx="9.22710887" ry="11.4990458"></ellipse>
                <ellipse id="Oval" fill="#B8BBBD" transform="translate(13.387805, 16.122383) rotate(-30.000000) translate(-13.387805, -16.122383) " cx="13.3878053" cy="16.1223827" rx="6.68358534" ry="8.32924538"></ellipse>
                <ellipse id="Oval" fill="#262A2F" transform="translate(13.138052, 15.920800) rotate(-30.000000) translate(-13.138052, -15.920800) " cx="13.1380517" cy="15.9208002" rx="5.41704785" ry="6.75085579"></ellipse>
                <ellipse id="Oval" fill="#C3C7C9" transform="translate(13.118882, 15.958685) rotate(-30.000000) translate(-13.118882, -15.958685) " cx="13.1188824" cy="15.9586845" rx="1.63833069" ry="2.04172726"></ellipse>
                <path d="M10.6104679,9.14583107 L15.1200078,22.6952739" id="Path-75" stroke="#B8BBBD" stroke-width="2"></path>
                <path d="M15.0295427,9.97666608 L10.7006141,21.8560357" id="Path-76" stroke="#B8BBBD" stroke-width="2"></path>
                <path d="M18.5998297,14.0980216 L6.71433855,17.6806735" id="Path-81" stroke="#B8BBBD" stroke-width="2"></path>
                <path d="M19.5464585,19.7878819 L7.37592445,12.1531572" id="Path-82" stroke="#B8BBBD" stroke-width="2"></path>
            </g>
            <path d="M89.7099531,91.8112414 C89.7099531,91.8112414 91.8245211,93.8396854 91.8903353,93.3108134 C92.03912,92.1152047 92.0240945,90.3789705 91.8903353,88.8589485 C91.7001924,86.6981893 91.7015149,86.2399458 91.1022124,83.8097688 C90.5343403,81.5070424 88.9666613,79.3909212 87.5749618,77.7591256 C85.0393509,74.786071 81.4863243,73.6349616 78.6226401,73.4310891 C75.7589559,73.2272166 73.7458126,73.6432214 71.399524,75.5802176 C69.758076,76.9353274 69.0691737,78.2041001 68.5267109,80.2014597 C68.3844694,80.725196 68.4700493,81.6507519 68.6769082,81.7507434 C68.883767,81.8507349 68.9347872,81.3409055 69.1326607,81.1727344 C69.3483189,80.9894483 69.5194365,80.4081088 69.7182645,79.988019 C69.9170926,79.5679292 70.1653967,79.0542261 70.2515178,78.8370657 C70.5428762,78.1023847 70.9440941,77.3905029 72.6650599,76.2531603 C73.8365406,75.4789585 75.9546388,74.9853661 77.8645179,75.069839 C79.774397,75.1543118 82.7729152,76.1506207 84.0492656,77.2441994 C86.0858506,78.9891484 88.2764492,81.1465407 89.1074149,84.8552667 C89.4300752,86.2953489 89.6583223,88.0118738 89.7099531,89.4460406" id="Oval" fill="#34393F"></path>
        </g>
    </g>
</svg>