<?xml version="1.0" encoding="UTF-8" standalone="no"?>
<svg width="365px" height="262px" viewBox="0 0 365 262" version="1.1" xmlns="http://www.w3.org/2000/svg" xmlns:xlink="http://www.w3.org/1999/xlink">
    <!-- Generator: Sketch 41.2 (35397) - http://www.bohemiancoding.com/sketch -->
    <title>Slice 1</title>
    <desc>Created with Sketch.</desc>
    <defs></defs>
    <g id="Page-1" stroke="none" stroke-width="1" fill="none" fill-rule="evenodd">
        <g id="car">
            <path d="M24.5527598,95 L1.69475053,111.474636 C1.69475053,111.474636 -3.53189632,119.95714 4.37223834,126.328916 C6.98013104,128.431222 17.7222149,135.697333 31.5162184,144.817773 C59.5297866,163.340029 144.060645,215.549504 167.186872,229.158318 C186.419284,240.475785 204.591921,250.850099 211.61738,253.743124 C227.090681,260.114901 252.439588,264.222138 269.352512,260.390544 C273.394996,259.474726 278.772545,257.770546 284.87651,255.497353 C286.937966,254.729641 292.201316,252.285858 298.165642,249.34057 C305.834319,245.553643 327.949829,232.458853 340.050424,224.601354 C352.151019,216.743854 355.544219,213.433092 357.346984,211.622993 C360.178661,208.779797 362.051679,206.296444 363.147896,204.024052 C365.02909,200.124448 364.622659,196.846111 362.847656,193.436636 C360.342531,188.624719 309.452023,215.069622 281.389448,230.123318 C270.605062,235.908421 250.571059,231.246893 250.571059,231.246893 L81.3094335,113.707195 L24.5527598,95 Z" id="Path-7" fill="#838B8F"></path>
            <path d="M41.6344032,124.489371 C41.6344032,124.489371 23.5480688,113.689241 18.9455835,103.651997 C14.3430983,93.6147532 13.8813226,87.5255356 16.9654022,84.3323648 C20.0494819,81.139194 22.8164998,75.7493495 20.32582,73.5125238 C17.8351403,71.2756982 17.0490309,67.5131005 17.0490309,62.4444711 C17.0490309,57.3758417 17.3246419,52.7058112 22.1198367,49.8871481 C26.9150314,47.0684849 107.4138,1.81583778 107.4138,1.81583778 C107.4138,1.81583778 111.152485,3.00970821e-16 114.599166,0 C118.045847,0 120.052993,0.385758136 122.380422,1.2128293 C128.755108,3.47812628 140.588927,10.8762957 140.588927,10.8762957 C140.588927,10.8762957 169.758605,12.7743853 178.507617,16.515082 C187.25663,20.2557786 245.880685,50.7538203 245.880685,50.7538203 C245.880685,50.7538203 249.388758,52.695334 252.751976,55.073338 C256.115194,57.451342 258.553171,59.7120068 259.748644,60.5867536 C262.287495,62.4444711 304.141189,106.408416 303.123969,104.545327 C302.10675,102.682239 293.656352,93.7591144 293.656352,93.7591144 L299.02391,90.8503039 C299.02391,90.8503039 300.593534,90.4054123 301.826823,90.8503039 C303.060113,91.2951954 303.248111,91.6750166 303.859357,92.4217912 C305.531522,94.464717 307.66409,97.5082012 307.66409,97.5082012 C307.66409,97.5082012 308.822225,99.2744987 308.243157,100.409648 C307.66409,101.544798 305.027762,104.044762 305.027762,104.044762 C305.027762,104.044762 330.934631,120.920807 336.358472,125.713407 C341.782312,130.506006 353.697989,142.58487 356.442713,150.74741 C359.187438,158.909949 357.0543,163.975168 354.093352,166.953361 C351.132404,169.931554 348.853786,171.154904 348.853786,175.697221 C348.853786,180.239538 348.923959,185.538431 348.923959,185.538431 C348.923959,185.538431 349.42772,185.656942 352.610596,183.227997 C355.793473,180.799051 359.620455,175.250449 359.620455,175.250449 C359.620455,175.250449 359.160054,183.721733 359.160054,185.291584 C359.160054,186.861436 361.00052,190.013166 361.00052,191.648881 C361.00052,193.284596 360.416317,197.877313 355.289712,202.958569 C350.163107,208.039824 315.474375,232.168341 293.998088,240.510145 C272.521801,248.851949 248.393783,247.257471 242.952256,244.465988 C237.51073,241.674504 232.260895,236.42773 232.260895,236.42773 C232.260895,236.42773 230.697222,224.026291 225.170594,212.337585 C221.701134,204.999749 215.795781,197.545393 209.759401,193.848734 C194.107453,184.263535 191.088884,190.132866 185.788844,192.779449 C180.488804,195.426031 175.644031,206.829074 175.644031,206.829074 L91.1845571,154.254804 C91.1845571,154.254804 93.7846866,144.712929 86.6353086,130.200169 C79.4859306,115.687409 65.2849093,109.167741 55.6107675,112.534817 C45.9366257,115.901893 41.6344032,124.489371 41.6344032,124.489371 Z" id="Path-8" fill="#FFFFFF"></path>
            <path d="M42.9820121,127.916698 C42.9820121,127.916698 23.5480688,113.689241 18.9455835,103.651997 C14.3430983,93.6147532 13.8813226,87.5255356 16.9654022,84.3323648 C20.0494819,81.139194 22.8164998,75.7493495 20.32582,73.5125238 C17.8351403,71.2756982 17.0490309,67.5131005 17.0490309,62.4444711 C17.0490309,57.3758417 17.3246419,52.7058112 22.1198367,49.8871481 C26.9150314,47.0684849 107.4138,1.81583778 107.4138,1.81583778 C107.4138,1.81583778 111.152485,3.00970821e-16 114.599166,0 C118.045847,0 120.052993,0.385758136 122.380422,1.2128293 C128.755108,3.47812628 140.588927,10.8762957 140.588927,10.8762957 C140.588927,10.8762957 169.758605,12.7743853 178.507617,16.515082 C187.25663,20.2557786 245.880685,50.7538203 245.880685,50.7538203 C245.880685,50.7538203 249.388758,52.695334 252.751976,55.073338 C256.115194,57.451342 258.553171,59.7120068 259.748644,60.5867536 C262.287495,62.4444711 213.68223,89.6383263 207.278823,92.115381 C200.875416,94.5924357 175.604666,103.363787 175.604666,103.363787 C175.604666,103.363787 207.123074,144.379231 209.759401,147.442761 C212.395729,150.50629 219.969823,154.419751 226.330441,152.349334 C232.69106,150.278917 257.656016,137.273377 262.787756,135.496198 C267.919495,133.719018 278.86017,126.805602 278.86017,126.805602 C278.86017,126.805602 294.127023,114.952394 296.768485,113.246233 C299.409948,111.540072 304.141189,106.408416 303.123969,104.545327 C302.10675,102.682239 293.656352,93.7591144 293.656352,93.7591144 L299.02391,90.8503039 C299.02391,90.8503039 300.593534,90.4054123 301.826823,90.8503039 C303.060113,91.2951954 303.248111,91.6750166 303.859357,92.4217912 C305.531522,94.464717 307.66409,97.5082012 307.66409,97.5082012 C307.66409,97.5082012 308.822225,99.2744987 308.243157,100.409648 C307.66409,101.544798 305.027762,104.044762 305.027762,104.044762 C305.027762,104.044762 330.934631,120.920807 336.358472,125.713407 C341.782312,130.506006 353.697989,142.58487 356.442713,150.74741 C359.187438,158.909949 357.0543,163.975168 354.093352,166.953361 C351.132404,169.931554 348.853786,171.154904 348.853786,175.697221 C348.853786,180.239538 348.923959,185.538431 348.923959,185.538431 C348.923959,185.538431 349.42772,185.656942 352.610596,183.227997 C355.793473,180.799051 359.620455,175.250449 359.620455,175.250449 C359.620455,175.250449 359.160054,183.721733 359.160054,185.291584 C359.160054,186.861436 361.00052,190.013166 361.00052,191.648881 C361.00052,192.764254 360.728883,195.254544 358.930635,198.337107 C358.091719,199.77518 356.920552,201.342155 355.289712,202.958569 C353.626102,204.607463 348.849489,208.262105 342.421551,212.732161 C329.041069,222.03709 308.505205,234.875301 293.998088,240.510145 C272.521801,248.851949 248.393783,247.257471 242.952256,244.465988 C237.51073,241.674504 232.523348,237.578824 232.523348,237.578824 C232.523348,237.578824 230.697222,224.026291 225.170594,212.337585 C221.701134,204.999749 215.795781,197.545393 209.759401,193.848734 C194.107453,184.263535 191.088884,190.132866 185.788844,192.779449 C180.488804,195.426031 175.644031,206.829074 175.644031,206.829074 L91.1845571,154.254804 C91.1845571,154.254804 93.7846866,144.712929 86.6353086,130.200169 C79.4859306,115.687409 65.9894967,109.879157 56.3153549,113.246233 C46.6412131,116.613309 42.9820121,127.916698 42.9820121,127.916698 Z" id="Path-8" fill="#262A2E"></path>
            <path d="M310,216.72963 L310.239838,228 C310.239838,228 321.804344,221.971177 329.187079,217.380145 C336.569814,212.789113 340.796122,208.974199 340.796122,208.974199 L340.693949,199 C340.693949,199 332.725457,204.453902 326.714775,208.263874 C320.704093,212.073846 310,216.72963 310,216.72963 Z" id="Path-61" fill="#C5C5C5"></path>
            <path d="M50.3401012,73.142078 C50.3401012,73.142078 47.4283968,72.2571455 44.2555835,72.2826767 C41.0827701,72.3082079 38.5934314,73.1840211 37.8647513,73.700444 C36.2796843,74.8237969 36.0913522,78.314504 44.2555835,83.1588255 C52.4198148,88.0031471 133.132925,133.009359 133.132925,133.009359 L208.603516,174.239428 C208.603516,174.239428 219.187484,178.384872 208.277415,170.790653 C197.367347,163.196434 189.650862,157.71871 191.186831,157.71871 C192.7228,157.71871 196.381718,157.237588 198.292885,159.345254 C200.204053,161.45292 205.911906,155.399909 200.80862,149.29908 C195.705335,143.198251 189.738066,143.33067 186.658801,144.873349 C183.579535,146.416028 175.8396,148.977597 175.8396,148.977597 L77.2884399,87.0776868 C77.2884399,87.0776868 70.2440374,81.901999 63.6523197,78.4932694 C57.0606019,75.0845398 50.3401012,73.142078 50.3401012,73.142078 Z" id="Path-16" fill="#34393F"></path>
            <path d="M17,56 C17,56 20.0888877,59.6840844 22.5608428,61.4912302 C24.0010171,62.5440831 26.3197562,63.7671519 28.0128677,64.7442807 C29.2258596,65.4443227 29.2630229,66.0994975 28.0128677,66.0434167 C26.4920632,65.9751949 24.3932744,65.8239818 22.5608428,65.4888189 C19.2220874,64.8781404 17,63.298376 17,63.298376 L17,56 Z" id="Path-17" fill="#34393F"></path>
            <path d="M39.6678224,44.0664899 L31.3628474,49.1780322 C31.3628474,49.1780322 27.949266,53.8308136 31.9270287,55.5985927 C34.5742253,56.7750477 47.4314594,60.651035 56.7112317,63.1124443 C61.375543,64.3496277 68.9579235,65.4067095 71.0305127,65.2294334 C72.9293762,65.0670166 74.7254447,64.5536901 76.4572053,64.4546509 C83.4414205,64.0552241 90.6920189,63.944453 96.6947092,64.4546509 C99.6600837,64.7066925 104.263142,65.2651902 111.425053,66.1938982 C118.586963,67.1226063 122.902977,69.0923134 128.993241,71.0511128 C133.48404,72.4954796 142.594281,77.417859 149.850525,82.7165079 C157.106769,88.0151568 160.016884,91.6038065 162.019517,93.8615669 C176.302209,109.96382 193.921643,133.143397 196.359401,135.631664 C199.564569,138.90324 216.647945,161.604858 216.647945,161.604858 C216.647945,161.604858 230.859601,176.744705 242.959245,185.69705 C255.058889,194.649395 270.477999,198.029443 276.773545,199.16955 C283.069091,200.309657 293.360833,202.357991 308.1077,194.649395 C313.518208,191.821173 322.161706,186.780579 329.922339,181.378974 C337.682972,175.977369 340.693833,173.122096 344.123985,168.950203 C346.682175,165.838825 348.143294,163.220687 348.925576,161.011595 C349.756671,158.664657 350.088116,157.78737 349.506846,152.075441 C348.925576,146.363513 347.172853,145.40355 346.653424,144.166975 C345.172915,140.642415 343.004297,137.242728 340.263666,133.874569 C336.16593,128.838567 330.04805,124.107938 324.788541,119.88905 C320.767953,116.663956 314.41245,112.084699 309.594037,108.736157 C304.775624,105.387615 306.239697,107.045658 305.30581,106.252821 C298.592131,100.55314 305.30581,103.488814 305.30581,103.488814 L308.1077,99.9606918 C308.1077,99.9606918 309.188751,97.4676939 307.247281,95.3829142 C305.30581,93.2981345 301.418826,90.0119101 301.418826,90.0119101 C301.418826,90.0119101 299.757827,89.1440483 298.029282,90.2708578 C296.300738,91.3976674 294.463847,93.531142 294.463847,93.531142 L302.293298,101.852512 C302.293298,101.852512 304.384053,105.394499 302.40527,107.384619 C301.162131,108.634881 291.354445,116.767135 279.208528,124.387724 C267.06261,132.008313 262.879522,134.345504 258.219439,136.284965 C255.351138,137.478712 252.280416,139.574479 249.193137,141.065144 C246.105857,142.555809 228.578199,151.169374 228.578199,151.169374 C228.578199,151.169374 216.836652,154.072039 211.589131,147.384817 C206.34161,140.697596 176.251542,103.072574 176.251542,103.072574 C176.251542,103.072574 194.384773,97.9722959 211.568045,90.5577033 C217.135508,88.1553393 222.603246,85.5100205 227.322167,82.7165079 C246.605441,71.3011721 258.219439,60.1855431 258.219439,60.1855431 L247.709357,51.2995401 L181.871995,18.2561799 C181.871995,18.2561799 174.200032,14.9828114 170.029255,14.39078 C165.858478,13.7987485 161.352796,13.1985814 161.352796,13.1985814 L85.6477369,54.6824499 L62.4482176,55.0737616 L142.409804,10.7176407 L122.103564,2.6630702 C122.103564,2.6630702 119.119182,1.65842053 114.908379,2.12239506 C110.697576,2.58636958 109.065547,4.30294164 106.958522,5.26702427 C101.128538,7.93457013 39.6678224,44.0664899 39.6678224,44.0664899 Z" id="Path-25" fill="#34393F"></path>
            <path d="M49.7636048,51.5084728 L41.9403032,49.4297181 C41.9403032,49.4297181 39.5173175,47.9919082 42.4503199,45.8413978 C45.3833223,43.6908874 111.603837,5.4354819 111.603837,5.4354819 C111.603837,5.4354819 113.509481,4.73829616 115.835732,4.49701997 C118.161982,4.25574378 119.697195,4.51204286 120.76694,4.78968136 C123.25522,5.4354819 125.264116,7.28332386 125.264116,7.28332386 C125.264116,7.28332386 121.5978,6.35697506 119.818385,6.35697506 C118.945636,6.35697506 117.10007,6.25615006 115.153152,6.8406421 C113.206233,7.42513414 110.967808,8.77041009 107.993413,10.3903959 C102.155899,13.5697631 47.4053821,45.8867171 47.4053821,45.8867171 C47.4053821,45.8867171 46.1832324,46.4862762 46.1675247,47.0697625 C46.151817,47.6532488 47.1983066,48.1618998 47.4053821,48.3035649 C48.5365913,49.0774514 50.9136951,50.4418499 50.9136951,50.4418499 C50.9136951,50.4418499 51.5488795,51.0047414 51.1135529,51.3697377 C50.6782262,51.734734 49.7636048,51.5084728 49.7636048,51.5084728 Z" id="Path-53" fill="#262A2F"></path>
            <path d="M83,83.9516002 C83,83.9516002 94.4088103,78.4980316 103.66142,79.0375438 C112.914029,79.5770559 122.000934,81.2291075 128.75779,84.2581412 C135.514646,87.2871749 139.377975,89.1991732 139.377975,89.1991732 L135.234128,115.685132 L83,83.9516002 Z" id="Path-55" fill="#131517"></path>
            <path d="M148.405928,95 L144,121.535984 L183.323677,147.000283 C183.323677,147.000283 186.32994,145.764858 187.869405,145.337059 C189.408871,144.90926 192.57937,144.428237 192.57937,144.428237 C192.57937,144.428237 180.905003,128.427748 172.333893,119.243019 C163.762783,110.05829 148.405928,95 148.405928,95 Z" id="Path-56" fill="#131517"></path>
            <path d="M289.823393,184.056544 L254.729666,154.31123 C254.729666,154.31123 252.361199,151.299873 256.423998,148.535872 C260.486798,145.771872 295.786318,123.648288 295.786318,123.648288 C295.786318,123.648288 297.418399,122.348798 299.928286,122.070603 C302.438173,121.792408 303.266599,122.015722 304.223836,122.685728 C307.11786,124.711365 329.071742,157.124794 329.071742,157.124794 L304.547753,129.221684 C304.547753,129.221684 303.290484,127.944895 301.386213,127.742228 C299.481942,127.539561 299.017169,127.892642 297.74366,128.782093 C294.175502,131.274187 262.961391,150.596713 262.961391,150.596713 C262.961391,150.596713 259.808972,152.463004 261.385182,154.793899 C262.961391,157.124794 289.823393,184.056544 289.823393,184.056544 Z" id="Path-56" fill="#262A2F"></path>
            <path d="M23.0011045,109 C23.0011045,109 20.8412045,112.279629 22.8665379,114.447931 C23.751444,115.395302 27.0954732,118.953754 30.7871158,122.026047 C34.4787583,125.09834 42.5697436,131.077242 42.5697436,131.077242 L42.5697436,125.075222 C42.5697436,125.075222 36.7193403,121.133694 32.2859996,117.318454 C27.8526589,113.503214 23.0011045,109 23.0011045,109 Z" id="Path-63" fill="#131517"></path>
            <path d="M90,153.399382 C90,153.399382 90.703377,157.975078 93.6287539,159.620336 C96.5541308,161.265593 174.931019,210.160056 174.931019,210.160056 L175.242854,205.178661 L91.2466413,153 L90,153.399382 Z" id="Path-64" fill="#131517"></path>
            <path d="M260.419161,62.1584696 C260.419161,62.1584696 253.109761,68.0710256 225.864399,84.6535709 C222.346849,86.7944828 219.079273,88.4260861 215.756507,89.9179022 C212.433742,91.4097183 207.50133,93.3638103 203.80001,94.8880083 C197.122021,97.6379933 176,103.974212 176,103.974212 L210.250124,148.353126 C210.250124,148.353126 212.139547,151.05841 217.53619,151.576998 C222.932834,152.095587 226.805335,149.74009 226.805335,149.74009 C226.805335,149.74009 250.490674,139.507372 269.723388,128.145317 C288.956103,116.783262 298.588625,109.005557 298.588625,109.005557 C298.588625,109.005557 301.10407,107.976828 301.524927,104.984898 C301.945784,101.992968 299.347369,100.742692 299.347369,100.742692 C299.347369,100.742692 277.673397,78.1644065 266.643162,67.262417 C255.612927,56.3604275 260.419161,62.1584696 260.419161,62.1584696 Z" id="Path-66" fill="#131517"></path>
            <path d="M234.320299,79.8573184 L230.144767,148.474678 C230.144767,148.474678 246.736174,140.513169 255.09505,136.179785 C263.453925,131.846401 270.39816,127.606629 270.39816,127.606629 L270.39816,71.38863 L260.317664,62.2402697 C260.317664,62.2402697 251.598244,68.2990298 247.828954,71.1742536 C244.059663,74.0494774 234.320299,79.8573184 234.320299,79.8573184 Z" id="Path-65" fill="#3D434A"></path>
            <path d="M347.970615,171.981228 C347.970615,171.981228 333.812077,183.30548 325.986945,188.650191 C318.161814,193.994902 292,206.778237 292,206.778237 L292,220.738462 C292,220.738462 314.508789,210.9264 330.904498,201.118969 C347.300206,191.311539 353.498922,183.938353 353.498922,183.938353 L347.970615,171.981228 Z" id="Path-60" fill="#34393F"></path>
            <path d="M290.849363,207.172304 C290.849363,207.172304 287.277579,208.63449 282.507052,209.9404 C277.736524,211.246309 273.188784,211.927166 271.072187,211.927166 L263,211.927166 L263.027178,226.363311 C263.027178,226.363311 270.811537,227.14752 275.480441,226.206221 C280.149345,225.264922 292.572056,219.979798 292.572056,219.979798 C292.572056,219.979798 293.514014,219.672057 293.977303,218.704213 C294.294385,218.041804 294.138249,217.002121 294.138249,216.093899 C294.138249,214.422782 294.138249,210.960151 294.138249,209.318852 C294.138249,208.764812 294.010683,207.346833 292.864676,206.959149 C291.718669,206.571465 290.849363,207.172304 290.849363,207.172304 Z" id="Path-57" fill="#FFFFFF"></path>
            <path d="M263.521397,211.788886 L251.087465,208.418336 C251.087465,208.418336 246.552218,207.394529 244.841782,208.550193 C243.941309,209.158602 243.000936,210.652483 243.000001,212.390583 C242.999066,214.128684 243.8182,215.729416 245.087392,216.988705 C245.924777,217.819556 247.763707,219.633829 249.988993,220.958291 C250.973927,221.544511 253.72053,223.256305 256.495888,224.410389 C259.271246,225.564474 263.521397,226.733313 263.521397,226.733313 L263.521397,211.788886 Z" id="Path-58" fill="#939393"></path>
            <path d="M283.969652,209.702264 C283.969652,209.702264 279.275585,212.294415 275.340036,212.915559 C271.404487,213.536704 267.169642,213.790257 266.472018,213.855481 C266.270821,213.874291 265.85028,214.073798 265.738107,214.402556 C265.625934,214.731314 265.832042,215.147025 265.738107,215.360719 C265.54462,215.800889 265.738107,220.781855 265.738107,220.781855 C265.738107,220.781855 265.706351,222.425066 266.128801,223.254631 C266.551252,224.084197 267.974051,224.368381 268.170669,224.390115 C269.741433,224.563744 272.949104,224.390115 274.327673,224.390115 C278.171552,224.390115 286.418807,222.86138 286.418807,222.86138 C286.418807,222.86138 282.748022,224.518547 279.412965,225.503843 C277.44907,226.084049 271.852575,226.628067 269.700039,226.628067 C267.547503,226.628067 266.046879,226.588449 264.752364,226.267518 C263.457849,225.946586 263.045212,225.192048 262.602244,224.639156 C262.159277,224.086264 262.120852,222.86138 262.120852,222.86138 L262.03725,215.166461 C262.03725,215.166461 262.135787,213.660226 262.602244,212.915559 C263.068702,212.170893 264.752364,212.03601 264.752364,212.03601 C264.752364,212.03601 270.578483,212.285025 273.138444,212.03601 C273.941456,211.957898 275.861203,211.910501 277.356581,211.59214 C278.851958,211.273779 283.969652,209.702264 283.969652,209.702264 Z" id="Path-59" fill="#C6C6C6"></path>
            <path d="M358.598015,158 C358.598015,158 360.069582,162.283155 360.069582,165.974344 C360.069582,169.665532 359.9592,176.273396 359.9592,176.273396 L353.305483,184.170754 C353.305483,184.170754 349.220764,187.202906 349.220764,183.025314 C349.220764,180.701805 349.152473,177.570047 349.091855,175.247864 C349.043485,173.394838 349.712014,171.373776 350.650084,170.415643 C351.938131,169.100049 353.652373,167.266739 354.534791,165.974344 C356.059866,163.74071 358.598015,158 358.598015,158 Z" id="Path-62" fill="#FFFFFF"></path>
            <path d="M17.071248,67.7329525 C17.071248,67.7329525 15.9537266,71.5438034 15.6460121,75.7280398 C15.3382975,79.9122762 15.6460121,85.8856346 15.6460121,85.8856346 L21.6838482,78.6133206 C21.6838482,78.6133206 22.5919933,76.3821315 21.3156169,74.3239873 C20.8271626,73.5363597 20.3918642,73.3062786 19.1271864,71.5438034 C17.8625087,69.7813282 17.071248,67.7329525 17.071248,67.7329525 Z" id="Path-71" fill="#CCD0D5"></path>
            <path d="M99.4614027,108.155775 L110.606199,114.116894" id="Path-72" stroke="#131517" stroke-width="2" stroke-linecap="round"></path>
            <path d="M143.302919,133.419299 L153.606199,139.116894" id="Path-72" stroke="#131517" stroke-width="2" stroke-linecap="round"></path>
            <path d="M144.881674,83.0789161 L141.371872,107.27104 L139.522404,119.840296 C139.522404,119.840296 135.947541,131.711764 135.947541,131.711764 C135.947541,131.711764 135.064457,135.843454 135.064457,140.545263 C135.064457,145.247071 134.146173,177.613252 134.146173,177.613252" id="Path-73" stroke="#131517"></path>
            <path d="M73.5981823,65.1857796 C73.5981823,65.1857796 96.8772359,63.5975067 109.590855,65.1924717 C122.304473,66.7874368 134.440335,71.7753274 143.662877,78.1261881 C152.885418,84.4770488 135.061219,74.1755824 127.525846,71.5299481 C119.990473,68.8843138 110.727035,66.2461153 95.055481,66.2461153 C79.3839273,66.2461153 73.5981823,65.1857796 73.5981823,65.1857796 Z" id="Path-74" fill="#D8D8D8"></path>
            <polygon id="Path-67" fill="#5BBA47" points="229.122333 88.4608861 240.294162 82.2728097 242.771507 86.1584566 232.039871 92.2160074"></polygon>
            <path d="M233.174561,88.4873417 L239.546562,85.1215983" id="Path-68" stroke="#FFFFFF"></path>
            <path d="M235.70039,149.492052 C236.68677,148.65326 242.800711,141.692466 248.18977,138.501149 C253.57883,135.309831 262.70531,132.364559 266.824896,131.281995 C270.944482,130.19943 258.972021,132.512098 255.964205,133.525006 C252.956389,134.537914 248.18977,136.58096 245.118481,139.021792 C242.047191,141.462624 235.907168,147.818361 235.411836,148.265016 C234.916504,148.711671 234.71401,150.330845 235.70039,149.492052 Z" id="Path-69" stroke="#25282B" fill="#25282B" transform="translate(251.339162, 140.364708) rotate(-5.000000) translate(-251.339162, -140.364708) "></path>
            <g id="Group-9" transform="translate(33.924031, 102.000000)">
                <path d="M39.5343654,67.3299985 C52.7891994,67.3299985 63.5343654,54.5701139 63.5343654,38.8299985 C63.5343654,23.0898832 49.3550247,8.11652631 36.1001907,8.11652631 C22.8453567,8.11652631 15.5343654,23.0898832 15.5343654,38.8299985 C15.5343654,54.5701139 26.2795314,67.3299985 39.5343654,67.3299985 Z" id="Oval" fill="#131517" transform="translate(39.534365, 37.723262) rotate(-30.000000) translate(-39.534365, -37.723262) "></path>
                <ellipse id="Oval" fill="#191B1E" transform="translate(33.735572, 39.431724) rotate(-30.000000) translate(-33.735572, -39.431724) " cx="33.7355716" cy="39.431724" rx="22.5" ry="28.5"></ellipse>
                <ellipse id="Oval" fill="#B8BBBD" transform="translate(32.645721, 39.285622) rotate(-30.000000) translate(-32.645721, -39.285622) " cx="32.6457208" cy="39.2856219" rx="16.2977019" ry="20.6437558"></ellipse>
                <ellipse id="Oval" fill="#262A2F" transform="translate(32.036705, 38.786006) rotate(-30.000000) translate(-32.036705, -38.786006) " cx="32.0367048" cy="38.7860064" rx="13.2092921" ry="16.73177"></ellipse>
                <ellipse id="Oval" fill="#C3C7C9" transform="translate(31.989961, 38.879902) rotate(-30.000000) translate(-31.989961, -38.879902) " cx="31.989961" cy="38.8799016" rx="3.99501525" ry="5.06035264"></ellipse>
                <path d="M25.8732752,21.9944723 L36.8696394,55.5763127" id="Path-75" stroke="#B8BBBD" stroke-width="2"></path>
                <path d="M36.6490432,24.0536691 L26.0930938,53.4962888" id="Path-76" stroke="#B8BBBD" stroke-width="2"></path>
                <path d="M45.3550701,34.2683107 L16.3726926,43.1477936" id="Path-81" stroke="#B8BBBD" stroke-width="2"></path>
                <path d="M47.663393,48.3704389 L17.985948,29.4480294" id="Path-82" stroke="#B8BBBD" stroke-width="2"></path>
            </g>
            <path d="M273.535967,125.214749 C274.357267,124.516337 279.447982,118.720498 283.935131,116.063277 C288.422281,113.406057 296.021358,110.953704 299.451493,110.052317 C302.881627,109.15093 292.91287,111.076551 290.408441,111.919939 C287.904011,112.763327 283.935131,114.46445 281.377851,116.496786 C278.820571,118.529122 273.708138,123.821166 273.295705,124.193069 C272.883272,124.564973 272.714667,125.913162 273.535967,125.214749 Z" id="Path-69" stroke="#25282B" fill="#25282B" transform="translate(286.557442, 117.614953) rotate(-8.000000) translate(-286.557442, -117.614953) "></path>
            <path d="M75.7165092,165.977118 L77.4204792,171.642633 C77.4204792,171.642633 84.5273805,165.759619 87.6597656,161.294704 C90.7469485,156.89422 91.4794594,156.026265 94.2315598,150.472937 C96.8393263,145.210853 97.2821936,138.735946 97.2821936,133.456421 C97.2821936,123.837376 92.479096,116.08279 87.4546031,111.207129 C82.4301102,106.331468 78.0068622,103.965867 70.538174,103.965867 C65.3131287,103.965867 62.0049604,105.294982 57.8096053,108.236935 C56.709523,109.008357 55.3948556,110.899772 55.6219634,111.413851 C55.8490712,111.92793 56.7565987,111.03993 57.3941394,111.030788 C58.0889815,111.020824 59.3347727,110.185297 60.3754349,109.699354 C61.4160971,109.213411 62.6983174,108.627282 63.2051536,108.349966 C64.9198441,107.411769 66.8034272,106.689055 71.8300784,107.227149 C75.2517764,107.593435 79.9946845,109.976235 83.427713,113.130192 C86.8607416,116.284149 90.8746487,122.875683 91.5166276,126.952541 C92.5409893,133.457705 93.1959696,140.987343 88.8397182,149.331257 C87.1482047,152.571163 84.8399211,156.187941 82.6515554,158.9918 C80.4631897,161.795658 75.7165092,165.977118 75.7165092,165.977118 Z" id="Oval" fill="#34393F" transform="translate(76.439158, 137.804250) rotate(-40.000000) translate(-76.439158, -137.804250) "></path>
            <g id="Group-9" transform="translate(164.000000, 178.000000)">
                <path d="M41.0949325,69.1018406 C54.8729836,69.1018406 66.0423009,56.0061695 66.0423009,39.8518406 C66.0423009,23.6975117 51.3032493,8.33011911 37.5251982,8.33011911 C23.7471471,8.33011911 16.147564,23.6975117 16.147564,39.8518406 C16.147564,56.0061695 27.3168813,69.1018406 41.0949325,69.1018406 Z" id="Oval" fill="#131517" transform="translate(41.094932, 38.715980) rotate(-30.000000) translate(-41.094932, -38.715980) "></path>
                <ellipse id="Oval" fill="#191B1E" transform="translate(35.067239, 40.469401) rotate(-30.000000) translate(-35.067239, -40.469401) " cx="35.0672389" cy="40.469401" rx="23.3881579" ry="29.25"></ellipse>
                <ellipse id="Oval" fill="#B8BBBD" transform="translate(33.934368, 40.319454) rotate(-30.000000) translate(-33.934368, -40.319454) " cx="33.9343677" cy="40.3194541" rx="16.9410323" ry="21.1870125"></ellipse>
                <ellipse id="Oval" fill="#262A2F" transform="translate(33.301312, 39.806691) rotate(-30.000000) translate(-33.301312, -39.806691) " cx="33.3013116" cy="39.8066908" rx="13.7307116" ry="17.1720798"></ellipse>
                <ellipse id="Oval" fill="#C3C7C9" transform="translate(33.252723, 39.903057) rotate(-30.000000) translate(-33.252723, -39.903057) " cx="33.2527226" cy="39.9030569" rx="4.15271322" ry="5.19351982"></ellipse>
                <path d="M26.8945887,22.5732742 L38.3250199,57.0388472" id="Path-75" stroke="#B8BBBD" stroke-width="2"></path>
                <path d="M38.0957159,24.6866604 L27.1230843,54.9040859" id="Path-76" stroke="#B8BBBD" stroke-width="2"></path>
                <path d="M47.1454018,35.1701083 L17.0189831,44.2832619" id="Path-81" stroke="#B8BBBD" stroke-width="2"></path>
                <path d="M49.5448427,49.6433452 L18.6959196,30.2229775" id="Path-82" stroke="#B8BBBD" stroke-width="2"></path>
            </g>
            <path d="M227.389812,233.539274 C227.389812,233.539274 232.749654,238.699005 232.916475,237.35372 C233.293603,234.312462 233.255517,229.896022 232.916475,226.029558 C232.434515,220.533258 232.437868,219.367629 230.918802,213.186014 C229.479404,207.328593 225.505773,201.945838 221.978202,197.795057 C215.551133,190.23253 206.545197,187.304466 199.286553,186.785877 C192.027909,186.267289 186.92515,187.325476 180.97796,192.252592 C176.817345,195.699571 175.071169,198.926934 173.696177,204.007597 C173.335634,205.339819 173.552556,207.694146 174.076885,207.948493 C174.601215,208.20284 174.730537,206.905993 175.232091,206.478218 C175.778725,206.011995 176.212461,204.533248 176.716434,203.46467 C177.220408,202.396092 177.84979,201.089391 178.068083,200.537002 C178.806596,198.668202 179.823572,196.857396 184.185742,193.96435 C187.15512,191.995021 192.523911,190.739475 197.364924,190.954348 C202.205937,191.16922 209.806348,193.703521 213.041541,196.485245 C218.203719,200.923853 223.756278,206.411589 225.862545,215.845436 C226.680399,219.508557 227.258942,223.874864 227.389812,227.522938" id="Oval" fill="#34393F"></path>
        </g>
    </g>
</svg>