<?xml version="1.0" encoding="UTF-8" standalone="no"?>
<svg width="350px" height="212px" viewBox="0 0 350 212" version="1.1" xmlns="http://www.w3.org/2000/svg" xmlns:xlink="http://www.w3.org/1999/xlink">
    <!-- Generator: Sketch 41.2 (35397) - http://www.bohemiancoding.com/sketch -->
    <title>Slice 1</title>
    <desc>Created with Sketch.</desc>
    <defs></defs>
    <g id="Page-1" stroke="none" stroke-width="1" fill="none" fill-rule="evenodd">
        <g id="Group-51" transform="translate(174.557183, 106.317162) rotate(2.000000) translate(-174.557183, -106.317162) translate(3.557183, 7.317162)">
            <path d="M332.784971,0.413831004 L7,177.336761 C7,177.336761 7.11432913,179.119961 10.5548298,184.037839 C13.9953305,188.955717 13.9953305,193.732135 13.9953305,193.732135 L340.548979,13.0268746 C340.548979,13.0268746 341.35901,11.3891314 341.648073,9.93216898 C341.937137,8.47520655 341.87813,4.93866946 339.919257,2.74165585 C336.704862,-0.863513867 332.784971,0.413831004 332.784971,0.413831004 Z" id="Path-20" stroke="#D7D7D7" fill="#FFFFFF"></path>
            <path d="M11.3304602,188.010792 C12.4394864,190.352352 12.9606157,194.548308 12.9606157,194.548308 L340.675712,13.1406322 C340.675712,13.1406322 341.195616,11.0700925 341.226061,8.9277896 C341.24524,7.57824873 341.422113,6.17034008 341.226061,5.14052406 C340.718791,2.47594624 10.2214341,185.669231 11.3304602,188.010792 Z" id="Path-39" fill="#DEE4E7"></path>
            <ellipse id="Oval-7" fill="#6B6E70" transform="translate(8.562807, 186.878294) rotate(-12.000000) translate(-8.562807, -186.878294) " cx="8.56280674" cy="186.878294" rx="6.5297878" ry="9.37652788"></ellipse>
            <path d="M250.42711,51.6740427 L229,63.3338786 L229,68.7280135 L250.42711,56.8743599 L250.42711,51.6740427 Z M261.42711,45.6882521 L281.927361,34.5327786 L281.927361,39.4481621 L261.42711,50.7890695 L261.42711,45.6882521 Z M218,69.3196692 L197,80.7470876 L197,86.4306766 L218,74.8133039 L218,69.3196692 Z M186,86.7328782 L166,97.6161338 L166,103.580131 L186,92.5159671 L186,86.7328782 Z M155,103.601924 L133,115.573506 L133,121.836003 L155,109.665422 L155,103.601924 Z M122,121.559296 L100,133.530877 L100,140.091874 L122,127.921293 L122,121.559296 Z M89,139.516668 L63,153.6649 L63,160.560578 L89,146.177165 L89,139.516668 Z M52,159.650691 L26.8014232,173.362818 L26.8014232,180.585929 L52,166.645869 L52,159.650691 Z" id="Combined-Shape" fill="#D04648"></path>
        </g>
    </g>
</svg>