<?xml version="1.0" encoding="UTF-8" standalone="no"?>
<svg width="148px" height="151px" viewBox="0 0 148 151" version="1.1" xmlns="http://www.w3.org/2000/svg" xmlns:xlink="http://www.w3.org/1999/xlink">
    <!-- Generator: Sketch 41.2 (35397) - http://www.bohemiancoding.com/sketch -->
    <title>Slice 1</title>
    <desc>Created with Sketch.</desc>
    <defs></defs>
    <g id="Page-1" stroke="none" stroke-width="1" fill="none" fill-rule="evenodd">
        <g id="Group-61">
            <g id="Group-52">
                <polygon id="Path-42" fill="#9AA4AA" points="9 122.912958 52.7905597 122.912958 73.1636048 134.702919 29.2520422 134.702919"></polygon>
                <polygon id="Rectangle-71" fill="#DDE4E7" points="111.009901 30.3546516 127.956741 23.6513232 127.956741 121.022114 111.009901 126.26577"></polygon>
                <path d="M90.1850021,16.9659241 L110.977514,28.7543979 L110.977514,126.707092 L90.1850021,114.344804 L90.1850021,16.9659241 Z" id="Path-41" fill="#9EA6AA"></path>
                <polygon id="Rectangle-71" fill="#BBBEC1" points="111.009901 126.318927 128.128021 119.952092 128.128021 128.148616 111.009901 135.359535"></polygon>
                <path d="M90.0783883,114.139067 L111.024302,126.082587 L111.024302,135.325109 L90.0783883,123.249361 L90.0783883,114.139067 Z" id="Path-41" fill="#798388"></path>
                <polygon id="Path-3" fill="#591F1D" points="111.106144 34.5858011 111.106144 15.4973369 90.1352829 6.17332391 90.1352829 23.8252948"></polygon>
                <polygon id="Path-18" fill="#AC4A4B" points="111.009901 15.1820576 111.009901 34.7209997 127.906788 28.0450616 127.906788 10.2152227"></polygon>
                <polygon id="Path-23" fill="#B1B9BC" points="90.4620842 122.912958 54.1338819 123.369313 71.6407314 134.507371 109.816692 134.507371"></polygon>
                <polygon id="Path-90" fill="#5F6A70" points="28.9324315 134.55526 28.9324315 146.333689 10.3704907 134.55526 10.3704907 123.67224"></polygon>
                <polygon id="Path-91" fill="#8A9296" points="10.1872301 134.851328 0.808106966 139.292689 19.3077416 149.916607 28.9324315 145.355003"></polygon>
                <polygon id="Path-94" fill="#AB6066" points="90.4570831 6.1034431 111.028561 16.0442081 127.933433 10.3247847 108.381077 0.353873151"></polygon>
            </g>
        </g>
    </g>
</svg>