<?xml version="1.0" encoding="UTF-8" standalone="no"?>
<svg width="152px" height="85px" viewBox="0 0 152 85" version="1.1" xmlns="http://www.w3.org/2000/svg" xmlns:xlink="http://www.w3.org/1999/xlink">
    <!-- Generator: Sketch 42 (36781) - http://www.bohemiancoding.com/sketch -->
    <title>Group 51</title>
    <desc>Created with Sketch.</desc>
    <defs></defs>
    <g id="Page-1" stroke="none" stroke-width="1" fill="none" fill-rule="evenodd">
        <g id="Group-51" transform="translate(75.474910, 43.325717) rotate(2.000000) translate(-75.474910, -43.325717) translate(1.227169, -1.436059)">
            <path d="M144.49434,0.187109197 L3.03938119,80.1808919 C3.03938119,80.1808919 3.08902259,80.9871465 4.58287874,83.2107116 C6.07673489,85.4342768 6.07673489,87.5938822 6.07673489,87.5938822 L147.865451,5.88995995 C147.865451,5.88995995 148.217165,5.14947216 148.342675,4.49072241 C148.468186,3.83197266 148.442565,2.2329658 147.592028,1.23960994 C146.196346,-0.390428423 144.49434,0.187109197 144.49434,0.187109197 Z" id="Path-20" stroke="#D7D7D7" fill="#FFFFFF"></path>
            <path d="M4.91965538,85.007039 C5.40119155,86.0657501 5.62746448,87.9629062 5.62746448,87.9629062 L147.920478,5.94139424 C147.920478,5.94139424 148.14622,5.00522219 148.159439,4.03660318 C148.167766,3.42642292 148.244564,2.7898523 148.159439,2.32423216 C147.939183,1.11947222 4.43811921,83.9483279 4.91965538,85.007039 Z" id="Path-39" fill="#DEE4E7"></path>
            <ellipse id="Oval-7" fill="#6B6E70" transform="translate(3.717948, 84.494992) rotate(-12.000000) translate(-3.717948, -84.494992) " cx="3.71794767" cy="84.4949923" rx="2.83521631" ry="4.23949531"></ellipse>
            <path d="M108.734778,23.3638576 L99.4311845,28.6357258 L99.4311845,31.0746254 L108.734778,25.7151246 L108.734778,23.3638576 Z M113.510949,20.6574473 L122.412103,15.6136211 L122.412103,17.8360584 L113.510949,22.9637266 L113.510949,20.6574473 Z M94.6550141,31.3421361 L85.5368705,36.5089193 L85.5368705,39.0786924 L94.6550141,33.8260234 L94.6550141,31.3421361 Z M80.7607001,39.2153295 L72.0767539,44.1360755 L72.0767539,46.8326323 L80.7607001,41.8300904 L80.7607001,39.2153295 Z M67.3005834,46.8424857 L57.7482426,52.2553062 L57.7482426,55.0868264 L67.3005834,49.5840303 L67.3005834,46.8424857 Z M52.9720721,54.9617165 L43.4197312,60.3745369 L43.4197312,63.3410205 L52.9720721,57.8382244 L52.9720721,54.9617165 Z M38.6435608,63.0809472 L27.3544307,69.4779169 L27.3544307,72.5957229 L38.6435608,66.0924185 L38.6435608,63.0809472 Z M22.5782602,72.1843271 L11.6371059,78.3841168 L11.6371059,81.6499677 L22.5782602,75.347121 L22.5782602,72.1843271 Z" id="Combined-Shape" fill="#D04648"></path>
        </g>
    </g>
</svg>