<?xml version="1.0" encoding="UTF-8" standalone="no"?>
<svg width="56px" height="56px" viewBox="0 0 56 56" version="1.1" xmlns="http://www.w3.org/2000/svg" xmlns:xlink="http://www.w3.org/1999/xlink">
    <!-- Generator: Sketch 42 (36781) - http://www.bohemiancoding.com/sketch -->
    <title>Group 4</title>
    <desc>Created with Sketch.</desc>
    <defs></defs>
    <g id="Page-1" stroke="none" stroke-width="1" fill="none" fill-rule="evenodd">
        <g id="Group-4">
            <g id="Group-3">
                <polygon id="Path-42" fill="#9AA4AA" points="3.61563292 43.57376 29.6293762 43.57376 38.4752977 48.904463 12.4090152 48.904463"></polygon>
                <polygon id="Path-23" fill="#B1B9BC" points="38.9862509 43.57376 30.2126431 43.7800957 37.8140701 48.8160478 47.3899697 48.8160478"></polygon>
                <polygon id="Rectangle-71" fill="#DDE4E7" points="47.9080578 13.7245263 55.2663301 10.6936891 55.2663301 43.7188356 47.9080578 46.0896975"></polygon>
                <path d="M38.8659426,7.67095843 L47.8939956,13.0009889 L47.8939956,46.2892364 L38.8659426,40.6997621 L38.8659426,7.67095843 Z" id="Path-41" fill="#9EA6AA"></path>
                <polygon id="Rectangle-71" fill="#BBBEC1" points="47.9080578 45.1137319 55.3406996 42.2350367 55.3406996 45.9410058 47.9080578 49.2013445"></polygon>
                <path d="M38.8196512,39.6067402 L47.9143106,45.0068733 L47.9143106,49.1857792 L38.8196512,43.725861 L38.8196512,39.6067402 Z" id="Path-41" fill="#798388"></path>
                <polygon id="Path-3" fill="#591F1D" points="47.9498463 15.6375946 47.9498463 7.00695271 38.8443547 2.79120141 38.8443547 10.7723485"></polygon>
                <polygon id="Path-18" fill="#AC4A4B" points="47.9080578 6.86440259 47.9080578 15.6987232 55.2446409 12.6802702 55.2446409 4.61870207"></polygon>
                <polygon id="Path-90" fill="#5F6A70" points="12.2702411 48.8377003 12.2702411 54.1631893 4.21069628 48.8377003 4.21069628 43.9170612"></polygon>
                <polygon id="Path-91" fill="#8A9296" points="4.13112503 48.9715642 0.0587349814 50.9796777 8.09122663 55.7831668 12.2702411 53.7206872"></polygon>
                <polygon id="Path-94" fill="#AB6066" points="38.9840795 2.75960556 47.9161601 7.25421457 55.25621 4.66823937 46.7666294 0.159999904"></polygon>
            </g>
        </g>
    </g>
</svg>