<?xml version="1.0" encoding="UTF-8" standalone="no"?>
<svg width="113px" height="55px" viewBox="0 0 113 55" version="1.1" xmlns="http://www.w3.org/2000/svg" xmlns:xlink="http://www.w3.org/1999/xlink">
    <!-- Generator: Sketch 42 (36781) - http://www.bohemiancoding.com/sketch -->
    <title>Group 17</title>
    <desc>Created with Sketch.</desc>
    <defs></defs>
    <g id="Page-1" stroke="none" stroke-width="1" fill="none" fill-rule="evenodd">
        <g id="Group-17">
            <path d="M15.2121216,23.6112246 C17.8405683,24.4798179 20.9008235,26.4790987 20.9008235,30.6931841 C20.9008235,35.8213501 16.6342971,39.0801995 11.5063019,39.0801995 L0.818502803,39.0801995 C0.344802362,39.0801995 0,38.6892242 0,38.2538445 L0,9.48954406 C0,9.05524742 0.344802362,8.66427214 0.818502803,8.66427214 L10.8596632,8.66427214 C15.9446924,8.66427214 20.1252868,12.1830497 20.1252868,16.745872 C20.1252868,20.2224112 17.6687042,22.5682629 15.2121216,23.5679033 L15.2121216,23.6112246 Z M10.2989565,21.0032787 C11.9370363,21.0032787 13.1003414,19.6137461 13.1003414,17.8754765 C13.1003414,16.1372069 11.9370363,14.9209597 10.2989565,14.9209597 L6.72203483,14.9209597 L6.72203483,21.0032787 L10.2989565,21.0032787 Z M10.3848886,32.8657503 C12.5396348,32.8657503 13.7469801,31.7794672 13.7469801,29.7379481 C13.7469801,27.9996785 12.583675,26.6523841 10.4718948,26.6523841 L6.72203483,26.6523841 L6.72203483,32.8657503 L10.3848886,32.8657503 Z" id="Fill-4" fill="#010101"></path>
            <path d="M24.0620489,36.6033007 C23.7172466,36.2556468 23.5883485,35.8646715 23.8891107,35.3004108 L25.8719928,31.7805502 C26.2167952,31.2152065 26.9063999,31.2152065 27.3371343,31.519539 C28.5434055,32.3448109 30.7411177,33.9097951 33.4565706,33.9097951 C35.1805824,33.9097951 36.4298196,32.823512 36.4298196,31.3029322 C36.4298196,29.4769369 34.83578,28.304011 31.9914291,26.9144784 C27.8108347,24.8718762 23.6313145,22.5249415 23.6313145,17.3112157 C23.6313145,13.0094046 26.9493659,8.66427214 33.5854687,8.66427214 C38.0678994,8.66427214 41.5148489,10.9668025 42.8081262,11.9231215 C43.3247927,12.2274541 43.2388607,13.0094046 43.0669966,13.3137372 L40.8692843,16.6592293 C40.567448,17.1368473 39.8348772,17.4855842 38.9723342,16.9635618 C37.9808932,16.268254 35.4383786,14.6177101 33.1547343,14.6177101 C31.3447904,14.6177101 30.5262876,15.7473146 30.5262876,17.0068832 C30.5262876,18.4408202 32.2062592,19.5704247 35.2235484,21.0476831 C39.0153003,22.9159168 43.9284654,25.0451617 43.9284654,30.9541953 C43.9284654,35.4303749 40.0937475,39.9487928 33.7584069,39.9487928 C28.1556371,39.9487928 25.05349,37.6029411 24.0620489,36.6033007" id="Fill-6" fill="#010101"></path>
            <path d="M53.1704577,15.0509237 L47.0080553,15.0509237 C46.5332807,15.0509237 46.1884784,14.6599485 46.1884784,14.2256518 L46.1884784,9.48954406 C46.1884784,9.05524742 46.5332807,8.66427214 47.0080553,8.66427214 L66.141901,8.66427214 C66.6156015,8.66427214 66.9604038,9.05524742 66.9604038,9.48954406 L66.9604038,14.2256518 C66.9604038,14.6599485 66.6156015,15.0509237 66.141901,15.0509237 L59.9794987,15.0509237 L59.9794987,38.2538445 C59.9794987,38.6881412 59.5917303,39.0791165 59.1609959,39.0791165 L53.9889605,39.0791165 C53.558226,39.0791165 53.1704577,38.6881412 53.1704577,38.2538445 L53.1704577,15.0509237 Z" id="Fill-7" fill="#010101"></path>
            <path d="M69.8197929,9.48954406 C69.8197929,9.05524742 70.1645952,8.66427214 70.6382957,8.66427214 L83.523807,8.66427214 C88.9966046,8.66427214 92.9183287,12.8783575 92.9183287,18.0498449 C92.9183287,22.0473235 90.5476782,25.2628515 86.5400221,26.7834313 L92.4446282,37.8195479 C92.7464646,38.3848917 92.4446282,39.0801995 91.7120575,39.0801995 L85.9803896,39.0801995 C85.6355872,39.0801995 85.3767169,38.8625097 85.2907848,38.6892242 L79.5591169,27.1744065 L76.5858679,27.1744065 L76.5858679,38.2538445 C76.5858679,38.6892242 76.1980995,39.0801995 75.7662909,39.0801995 L70.6382957,39.0801995 C70.1645952,39.0801995 69.8197929,38.6892242 69.8197929,38.2538445 L69.8197929,9.48954406 Z M82.9641745,21.6563482 C84.7300782,21.6563482 86.2392599,20.2224112 86.2392599,18.179809 C86.2392599,16.1372069 84.7300782,14.8776383 82.9641745,14.8776383 L76.5858679,14.8776383 L76.5858679,21.6563482 L82.9641745,21.6563482 Z" id="Fill-8" fill="#010101"></path>
            <path d="M108.007976,33.2853065 L104.848899,31.4473978 C104.501949,31.2448704 104.380569,30.8019095 104.570694,30.4455913 C109.159466,21.8484673 108.224955,11.2304018 102.206489,3.58201555 C101.957286,3.26468658 101.999177,2.80764622 102.30531,2.54663502 L105.093806,0.175873559 C105.409606,-0.0927188769 105.885455,-0.0493975162 106.143251,0.276595723 C113.522666,9.57444277 114.663414,22.5372769 109.024123,33.0004686 C108.826479,33.3665341 108.365668,33.4932491 108.007976,33.2853065" id="Fill-9" fill="#44BA46"></path>
            <path d="M99.4672404,28.1482629 L96.3070892,26.3092712 C95.9655093,26.1099929 95.8398336,25.6778623 96.0192168,25.3247932 C98.5155429,20.4186491 97.9902832,14.4511317 94.6765285,10.065927 C94.438067,9.74968102 94.4864038,9.30130494 94.787166,9.04570891 L97.5767352,6.67386441 C97.8979063,6.3998568 98.3801999,6.45292547 98.6379961,6.78758298 C103.281549,12.8135843 104.009824,21.0912133 100.49198,27.8471795 C100.296485,28.2229923 99.8313775,28.3605376 99.4672404,28.1482629" id="Fill-10" fill="#44BA46"></path>
            <polygon id="Fill-11" fill="#44BA46" points="4.76539599 50.17804 5.75559289 48.0061957 6.93372751 45.5051092 9.51669665 45.5051092 9.51669665 54.6672882 6.94664823 54.6672882 6.94664823 50.9416511 6.89379075 50.9416511 6.23718331 52.4157326 5.79552965 53.4947233 3.72116699 53.4947233 3.26659262 52.403025 2.62408051 50.9023731 2.58414375 50.9023731 2.58414375 54.6672882 0 54.6672882 0 45.5051092 2.5030956 45.5051092 3.58726136 47.8213579 4.68552246 50.17804"></polygon>
            <polygon id="Fill-12" fill="#44BA46" points="14.8282867 48.9280743 15.4837195 47.4008519 16.2871533 45.5051092 19.0310441 45.5051092 16.0992155 51.126489 16.0992155 54.6672882 13.4892304 54.6672882 13.4892304 51.126489 10.5714971 45.5051092 13.342404 45.5051092 14.1317425 47.4008519 14.7742546 48.9280743"></polygon>
            <path d="M26.2725196,49.9146461 C26.5403309,49.9932022 26.7635069,50.109881 26.9420478,50.2635274 C27.1205886,50.4171739 27.2650657,50.5858384 27.3766538,50.7706762 C27.4882418,50.9543587 27.5657661,51.1472832 27.6104013,51.3494496 C27.6550365,51.5516159 27.6785287,51.7399194 27.6785287,51.9155153 C27.6785287,52.3279347 27.5951314,52.7033865 27.4306859,53.0407155 C27.2650657,53.3791997 27.0395405,53.669164 26.75411,53.9094532 C26.4686796,54.1508975 26.1315663,54.3380458 25.7439448,54.4697428 C25.3551486,54.6014397 24.9334633,54.6672882 24.4788889,54.6672882 L19.9683835,54.6672882 L19.9683835,45.5051092 L24.1711409,45.5051092 C24.7420018,45.5051092 25.2400367,45.5686472 25.6640712,45.6957232 C26.0869311,45.8227992 26.4381397,46.003016 26.7141733,46.2352185 C26.9902068,46.4685762 27.1957637,46.7446777 27.3296693,47.0646782 C27.463575,47.3846786 27.5305278,47.7381809 27.5305278,48.1240298 C27.5305278,48.2822972 27.5129086,48.4486512 27.4776703,48.6242472 C27.4412574,48.7998431 27.3766538,48.9696628 27.2826849,49.1313959 C27.1898906,49.2942842 27.0595088,49.4456202 26.8950633,49.5854037 C26.7294432,49.7263426 26.5227117,49.83609 26.2725196,49.9146461 M24.7737162,48.3088676 C24.7737162,48.0801309 24.6903189,47.899914 24.5258734,47.7693723 C24.3602532,47.6376754 24.1488233,47.5718269 23.8904089,47.5718269 L22.6582422,47.5718269 L22.6582422,49.019338 L23.8904089,49.019338 C24.1758394,49.019338 24.394317,48.9581104 24.5458418,48.8356554 C24.6973665,48.7120451 24.7737162,48.5364492 24.7737162,48.3088676 M24.9334633,51.757248 C24.9334633,51.5204245 24.8582882,51.3298105 24.7067634,51.185406 C24.5552386,51.0398462 24.3226657,50.9682216 24.0102192,50.9682216 L22.6582422,50.9682216 L22.6582422,52.6005705 L24.0102192,52.6005705 C24.3226657,52.6005705 24.5552386,52.5208591 24.7067634,52.363747 C24.8582882,52.2054796 24.9334633,52.0033133 24.9334633,51.757248" id="Fill-13" fill="#44BA46"></path>
            <path d="M32.0187156,45.5051092 C32.6882438,45.5051092 33.2661523,45.602149 33.7524411,45.7950735 C34.23873,45.987998 34.6416215,46.2560128 34.9634649,46.5979627 C35.2841336,46.9399127 35.521405,47.3465558 35.6729298,47.8155818 C35.8244546,48.2846077 35.9008043,48.7917564 35.9008043,49.3358727 L35.9008043,51.0467776 C35.9008043,51.6267063 35.8174069,52.1511835 35.6529614,52.6202095 C35.4873413,53.0903906 35.2418476,53.4912576 34.9164804,53.8251209 C34.5911133,54.1589842 34.1846979,54.4177571 33.6984091,54.6014397 C33.2121202,54.7862775 32.6518308,54.8775412 32.0187156,54.8775412 C31.3221714,54.8775412 30.7313422,54.7747251 30.2450533,54.5690931 C29.7587645,54.3623058 29.3640952,54.0838938 29.0610456,53.732702 C28.7568214,53.3815102 28.5359946,52.9760222 28.3985652,52.515083 C28.2599611,52.0541437 28.190659,51.5654787 28.190659,51.0467776 L28.190659,49.3358727 C28.190659,48.8448973 28.2599611,48.3689399 28.3985652,47.9080007 C28.5359946,47.4470614 28.7591707,47.039263 29.0669187,46.6834502 C29.3746667,46.3276374 29.7705106,46.0434493 30.252101,45.8274201 C30.7336914,45.6125462 31.3221714,45.5051092 32.0187156,45.5051092 M32.0187156,47.6376754 C31.8049365,47.6376754 31.6240464,47.6769534 31.47722,47.7566647 C31.3292191,47.8352208 31.2129326,47.9403473 31.1283606,48.0720442 C31.0437887,48.2037411 30.9815343,48.3527666 30.9415975,48.5191207 C30.9016608,48.6866299 30.8805178,48.8576049 30.8805178,49.0332008 L30.8805178,51.3633124 C30.8805178,51.546995 30.8993115,51.7225909 30.9345499,51.8901001 C30.9697882,52.0564542 31.0308679,52.2031692 31.1154399,52.3302452 C31.2000119,52.4584764 31.3162984,52.5589819 31.4631247,52.6340723 C31.6099511,52.7080074 31.7955396,52.744975 32.0187156,52.744975 C32.4474486,52.744975 32.7528474,52.617899 32.9360866,52.363747 C33.1181513,52.109595 33.209771,51.7757317 33.209771,51.3633124 L33.209771,49.0332008 C33.209771,48.6554385 33.1205005,48.3285067 32.9419597,48.0524052 C32.7634189,47.7763037 32.4556708,47.6376754 32.0187156,47.6376754" id="Fill-14" fill="#44BA46"></path>
            <path d="M41.415602,45.5051092 C42.0851301,45.5051092 42.661864,45.602149 43.1493275,45.7950735 C43.6356164,45.987998 44.0385079,46.2560128 44.3603512,46.5979627 C44.68102,46.9399127 44.9182914,47.3465558 45.0698161,47.8155818 C45.2213409,48.2846077 45.2976906,48.7917564 45.2976906,49.3358727 L45.2976906,51.0467776 C45.2976906,51.6267063 45.2142933,52.1511835 45.0498478,52.6202095 C44.8842276,53.0903906 44.638734,53.4912576 44.3133668,53.8251209 C43.9879996,54.1589842 43.5815843,54.4177571 43.0952954,54.6014397 C42.6090065,54.7862775 42.0487172,54.8775412 41.415602,54.8775412 C40.7190578,54.8775412 40.1282285,54.7747251 39.6419397,54.5690931 C39.1556508,54.3623058 38.7609816,54.0838938 38.457932,53.732702 C38.1537078,53.3815102 37.932881,52.9760222 37.7954515,52.515083 C37.6568474,52.0541437 37.5875454,51.5654787 37.5875454,51.0467776 L37.5875454,49.3358727 C37.5875454,48.8448973 37.6568474,48.3689399 37.7954515,47.9080007 C37.932881,47.4470614 38.156057,47.039263 38.463805,46.6834502 C38.7715531,46.3276374 39.1673969,46.0434493 39.6489873,45.8274201 C40.1305778,45.6125462 40.7190578,45.5051092 41.415602,45.5051092 M41.415602,47.6376754 C41.2018228,47.6376754 41.0209327,47.6769534 40.8729318,47.7566647 C40.7261054,47.8352208 40.609819,47.9403473 40.525247,48.0720442 C40.440675,48.2037411 40.3784206,48.3527666 40.3384839,48.5191207 C40.2985471,48.6866299 40.2774041,48.8576049 40.2774041,49.0332008 L40.2774041,51.3633124 C40.2774041,51.546995 40.2961979,51.7225909 40.3314362,51.8901001 C40.3666745,52.0564542 40.4277543,52.2031692 40.5123263,52.3302452 C40.5968982,52.4584764 40.7131847,52.5589819 40.8600111,52.6340723 C41.008012,52.7080074 41.1924259,52.744975 41.415602,52.744975 C41.8443349,52.744975 42.1497337,52.617899 42.332973,52.363747 C42.5150377,52.109595 42.6066573,51.7757317 42.6066573,51.3633124 L42.6066573,49.0332008 C42.6066573,48.6554385 42.5173869,48.3285067 42.338846,48.0524052 C42.1603052,47.7763037 41.8525572,47.6376754 41.415602,47.6376754" id="Fill-15" fill="#44BA46"></path>
            <path d="M52.2079259,48.256882 C51.9495116,48.1078565 51.709891,47.9888672 51.4914134,47.9010692 C51.2729357,47.8132713 51.0720773,47.7497333 50.8900126,47.7104553 C50.7067733,47.6711772 50.5411532,47.6469173 50.3943269,47.6376754 C50.2475005,47.6295887 50.1194679,47.6249678 50.0125784,47.6249678 C49.6731158,47.6249678 49.410003,47.6734877 49.2232399,47.7693723 C49.0353022,47.8664122 48.9425079,48.0281452 48.9425079,48.256882 C48.9425079,48.4590484 49.0576198,48.6254024 49.2901927,48.7570993 C49.5215911,48.8887963 49.9550224,49.0031647 50.5881377,49.0990493 C51.0615058,49.1787606 51.4890641,49.2838871 51.8731619,49.415584 C52.2572596,49.5472809 52.5826268,49.7251873 52.850438,49.9481479 C53.1182493,50.1722638 53.3249808,50.4460548 53.4729818,50.7706762 C53.6198081,51.0964528 53.6938086,51.4903884 53.6938086,51.9559486 C53.6938086,52.4295955 53.5974905,52.8466358 53.4060289,53.2059143 C53.2133928,53.566348 52.9479307,53.8713304 52.6096428,54.1208614 C52.2701803,54.3715477 51.8684634,54.5598512 51.4044922,54.6869272 C50.9405209,54.8140032 50.4366129,54.8786964 49.8927681,54.8786964 C49.5709247,54.8786964 49.2361606,54.8625231 48.8884758,54.832487 C48.540791,54.8012956 48.1931062,54.7400681 47.8442468,54.6476491 C47.496562,54.5552302 47.1512265,54.4246885 46.8070655,54.2525583 C46.4640792,54.0815834 46.1316643,53.8516913 45.8098209,53.561727 L47.0278923,51.7456956 C47.2780844,51.9651905 47.5294511,52.1430969 47.7843417,52.2782595 C48.0380576,52.4145774 48.2882497,52.5197039 48.5337434,52.5947943 C48.779237,52.6687294 49.0153338,52.7195598 49.2432083,52.7461302 C49.4710828,52.7715454 49.6872112,52.7854083 49.8927681,52.7854083 C50.3121041,52.7854083 50.6128045,52.7103179 50.7960438,52.5612924 C50.9781084,52.4122669 51.0697281,52.236671 51.0697281,52.0345047 C51.0697281,51.8242517 50.9969022,51.6463453 50.8489012,51.5019407 C50.7020749,51.3575362 50.3919776,51.2316155 49.9186095,51.126489 C49.3923839,51.0121206 48.9131427,50.8989074 48.4808859,50.784539 C48.0474545,50.6701706 47.6774521,50.5165242 47.3697041,50.3235997 C47.0619561,50.1306753 46.8246847,49.8811442 46.6602392,49.5726961 C46.494619,49.2665585 46.4123963,48.8576049 46.4123963,48.3493009 C46.4123963,47.8571703 46.5110636,47.4320433 46.7072236,47.0716096 C46.9033836,46.7123311 47.161798,46.4165906 47.4836413,46.1832329 C47.8043101,45.9510304 48.1684394,45.7800554 48.5736801,45.670308 C48.9800955,45.5605605 49.3970823,45.5051092 49.8258152,45.5051092 C50.4236921,45.5051092 51.021569,45.5732681 51.6194459,45.709586 C52.2173228,45.8459039 52.7787868,46.0804169 53.3050124,46.4142801 L52.2079259,48.256882 Z" id="Fill-16" fill="#44BA46"></path>
            <polygon id="Fill-17" fill="#44BA46" points="59.2250508 47.6376754 59.2250508 54.6672882 56.5351921 54.6672882 56.5351921 47.6376754 54.0320965 47.6376754 54.0320965 45.5051092 61.7281464 45.5051092 61.7281464 47.6376754"></polygon>
            <path d="M67.7391397,54.6672882 L66.3871626,51.3101715 L65.5837288,51.3101715 L65.5837288,54.6672882 L62.9208862,54.6672882 L62.9208862,45.5051092 L67.3104067,45.5051092 C67.801394,45.5051092 68.2453969,45.5709577 68.6424154,45.7026546 C69.0394338,45.8343515 69.3788963,46.0249655 69.6596283,46.2756518 C69.9403603,46.5251828 70.1553141,46.8278547 70.3021404,47.1836675 C70.4489668,47.5394803 70.5229672,47.9403473 70.5229672,48.388579 C70.5229672,48.9142115 70.39376,49.3947898 70.1353457,49.8291586 C69.8757567,50.2646827 69.4528968,50.6124088 68.8632422,50.8758027 L70.5370626,54.6672882 L67.7391397,54.6672882 Z M67.8460292,48.427857 C67.8460292,48.1205641 67.7391397,47.9010692 67.5253605,47.7693723 C67.3104067,47.6376754 67.0837068,47.5718269 66.8429116,47.5718269 L65.5837288,47.5718269 L65.5837288,49.2700242 L66.9227851,49.2700242 C67.0202778,49.2700242 67.1236436,49.2573166 67.2305332,49.2307462 C67.3374228,49.2041758 67.4384393,49.1579663 67.5312335,49.0921179 C67.6252024,49.0262694 67.7015521,48.9384714 67.759108,48.828724 C67.816664,48.7189765 67.8460292,48.5861244 67.8460292,48.427857 L67.8460292,48.427857 Z" id="Fill-19" fill="#44BA46"></path>
            <polygon id="Fill-20" fill="#44BA46" points="71.1431617 52.4365269 74.0209582 52.4365269 74.0209582 54.9907543 71.1431617 54.9907543"></polygon>
            <path d="M80.6598584,54.6672882 L79.3078814,51.3101715 L78.5044476,51.3101715 L78.5044476,54.6672882 L75.8416049,54.6672882 L75.8416049,45.5051092 L80.2311254,45.5051092 C80.7221128,45.5051092 81.1661156,45.5709577 81.5631341,45.7026546 C81.9601525,45.8343515 82.299615,46.0249655 82.580347,46.2756518 C82.8622536,46.5251828 83.0760328,46.8278547 83.2228591,47.1836675 C83.3708601,47.5394803 83.443686,47.9403473 83.443686,48.388579 C83.443686,48.9142115 83.3144788,49.3947898 83.0560644,49.8291586 C82.7964754,50.2646827 82.3736155,50.6124088 81.7839609,50.8758027 L83.4577813,54.6672882 L80.6598584,54.6672882 Z M80.766748,48.427857 C80.766748,48.1205641 80.6598584,47.9010692 80.4460792,47.7693723 C80.2311254,47.6376754 80.0044256,47.5718269 79.7636303,47.5718269 L78.5044476,47.5718269 L78.5044476,49.2700242 L79.8435039,49.2700242 C79.9409966,49.2700242 80.0443623,49.2573166 80.1512519,49.2307462 C80.2581415,49.2041758 80.359158,49.1579663 80.4519523,49.0921179 C80.5459211,49.0262694 80.6222708,48.9384714 80.6798268,48.828724 C80.7373827,48.7189765 80.766748,48.5861244 80.766748,48.427857 L80.766748,48.427857 Z" id="Fill-21" fill="#44BA46"></path>
            <path d="M93.0555261,50.9809292 C93.0555261,51.4730598 92.9791764,51.9443962 92.8276516,52.3960936 C92.6761268,52.847791 92.44003,53.2475028 92.1181867,53.5940737 C91.7975179,53.9406445 91.3840549,54.216746 90.8801469,54.4235333 C90.3762389,54.6291654 89.7760127,54.7331366 89.0806432,54.7331366 C88.384099,54.7331366 87.7932697,54.6337863 87.3069809,54.4362409 C86.820692,54.2386955 86.4236735,53.9695254 86.1159255,53.6264203 C85.8081775,53.2844703 85.5850014,52.8882243 85.4463974,52.4353717 C85.3077933,51.9836743 85.2384913,51.503096 85.2384913,50.9936368 L85.2384913,45.5051092 L87.9154293,45.5051092 L87.9154293,51.165767 C87.9154293,52.1303893 88.326543,52.6132781 89.147596,52.6132781 C89.343756,52.6132781 89.5175984,52.574 89.6691232,52.4942887 C89.820648,52.4157326 89.9475059,52.3059852 90.0508717,52.1662016 C90.1530628,52.0252628 90.2317617,51.8669954 90.2846192,51.6913995 C90.3386513,51.5169588 90.3656674,51.3275001 90.3656674,51.1253337 L90.3656674,45.5051092 L93.0555261,45.5051092 L93.0555261,50.9809292 Z" id="Fill-22" fill="#44BA46"></path>
        </g>
    </g>
</svg>