<?xml version="1.0" encoding="UTF-8" standalone="no"?>
<svg width="113px" height="56px" viewBox="0 0 113 56" version="1.1" xmlns="http://www.w3.org/2000/svg" xmlns:xlink="http://www.w3.org/1999/xlink">
    <!-- Generator: Sketch 41.2 (35397) - http://www.bohemiancoding.com/sketch -->
    <title>Slice 1</title>
    <desc>Created with Sketch.</desc>
    <defs></defs>
    <g id="Page-1" stroke="none" stroke-width="1" fill="none" fill-rule="evenodd">
        <g id="logo" transform="translate(0.000000, 1.000000)">
            <g id="1">
                <path d="M15.2410095,23.5108824 C17.8744476,24.3757843 20.9405143,26.3665686 20.9405143,30.5627451 C20.9405143,35.6691176 16.6658857,38.9141176 11.5281524,38.9141176 L0.820057143,38.9141176 C0.345457143,38.9141176 0,38.5248039 0,38.0912745 L0,9.44921569 C0,9.01676471 0.345457143,8.62745098 0.820057143,8.62745098 L10.8802857,8.62745098 C15.9749714,8.62745098 20.1635048,12.1312745 20.1635048,16.6747059 C20.1635048,20.1364706 17.7022571,22.4723529 15.2410095,23.4677451 L15.2410095,23.5108824 Z M10.3185143,20.9140196 C11.9597048,20.9140196 13.125219,19.5303922 13.125219,17.7995098 C13.125219,16.0686275 11.9597048,14.857549 10.3185143,14.857549 L6.7348,14.857549 L6.7348,20.9140196 L10.3185143,20.9140196 Z M10.4046095,32.7260784 C12.5634476,32.7260784 13.7730857,31.6444118 13.7730857,29.6115686 C13.7730857,27.8806863 12.6075714,26.5391176 10.491781,26.5391176 L6.7348,26.5391176 L6.7348,32.7260784 L10.4046095,32.7260784 Z" id="Fill-4" fill="#121820"></path>
                <path d="M24.1077429,36.4477451 C23.7622857,36.1015686 23.6331429,35.7122549 23.9344762,35.1503922 L25.9211238,31.6454902 C26.266581,31.082549 26.9574952,31.082549 27.3890476,31.3855882 C28.5976095,32.2073529 30.7994952,33.7656863 33.5201048,33.7656863 C35.2473905,33.7656863 36.499,32.6840196 36.499,31.169902 C36.499,29.3516667 34.9019333,28.1837255 32.052181,26.800098 C27.8636476,24.7661765 23.6761905,22.4292157 23.6761905,17.2376471 C23.6761905,12.9541176 27.0005429,8.62745098 33.6492476,8.62745098 C38.1401905,8.62745098 41.5936857,10.9201961 42.889419,11.872451 C43.4070667,12.1754902 43.3209714,12.9541176 43.148781,13.2571569 L40.9468952,16.5884314 C40.6444857,17.0640196 39.9105238,17.4112745 39.0463429,16.8914706 C38.053019,16.1991176 35.5056762,14.5555882 33.2176952,14.5555882 C31.4043143,14.5555882 30.5842571,15.6803922 30.5842571,16.9346078 C30.5842571,18.362451 32.267419,19.4872549 35.2904381,20.9582353 C39.0893905,22.8185294 44.0118857,24.9387255 44.0118857,30.8226471 C44.0118857,35.2798039 40.1698857,39.7790196 33.8225143,39.7790196 C28.2091048,39.7790196 25.1010667,37.4431373 24.1077429,36.4477451" id="Fill-6" fill="#121820"></path>
                <path d="M53.2714286,14.9869608 L47.0973238,14.9869608 C46.6216476,14.9869608 46.2761905,14.5976471 46.2761905,14.1651961 L46.2761905,9.44921569 C46.2761905,9.01676471 46.6216476,8.62745098 47.0973238,8.62745098 L66.2675048,8.62745098 C66.7421048,8.62745098 67.0875619,9.01676471 67.0875619,9.44921569 L67.0875619,14.1651961 C67.0875619,14.5976471 66.7421048,14.9869608 66.2675048,14.9869608 L60.0934,14.9869608 L60.0934,38.0912745 C60.0934,38.5237255 59.7048952,38.9130392 59.2733429,38.9130392 L54.0914857,38.9130392 C53.6599333,38.9130392 53.2714286,38.5237255 53.2714286,38.0912745 L53.2714286,14.9869608 Z" id="Fill-7" fill="#121820"></path>
                <path d="M69.952381,9.44921569 C69.952381,9.01676471 70.2978381,8.62745098 70.7724381,8.62745098 L83.682419,8.62745098 C89.1656095,8.62745098 93.094781,12.8236275 93.094781,17.9731373 C93.094781,21.9536275 90.7196286,25.1554902 86.7043619,26.6696078 L92.620181,37.6588235 C92.9225905,38.2217647 92.620181,38.9141176 91.886219,38.9141176 L86.1436667,38.9141176 C85.7982095,38.9141176 85.5388476,38.6973529 85.4527524,38.5248039 L79.7102,27.0589216 L76.7313048,27.0589216 L76.7313048,38.0912745 C76.7313048,38.5248039 76.3428,38.9141176 75.9101714,38.9141176 L70.7724381,38.9141176 C70.2978381,38.9141176 69.952381,38.5248039 69.952381,38.0912745 L69.952381,9.44921569 Z M83.1217238,21.5643137 C84.890981,21.5643137 86.4030286,20.1364706 86.4030286,18.102549 C86.4030286,16.0686275 84.890981,14.8144118 83.1217238,14.8144118 L76.7313048,14.8144118 L76.7313048,21.5643137 L83.1217238,21.5643137 Z" id="Fill-8" fill="#121820"></path>
                <path d="M108.213084,33.1438516 L105.048008,31.3137536 C104.700398,31.1120869 104.578789,30.6710085 104.769274,30.3162046 C109.36676,21.7556163 108.430474,11.1826752 102.400579,3.5667928 C102.150903,3.25081241 102.192874,2.79571437 102.499589,2.53581241 L105.293379,0.175126137 C105.609779,-0.092324843 106.086531,-0.0491875881 106.344817,0.275420255 C113.738246,9.53375359 114.88116,22.4414987 109.23116,32.8602242 C109.033141,33.224734 108.571455,33.3509105 108.213084,33.1438516" id="Fill-9" fill="#5BBA47"></path>
                <path d="M99.6561291,28.0286393 L96.4899767,26.1974628 C96.1477481,25.9990314 96.0218339,25.5687373 96.2015577,25.2171687 C98.7026243,20.3318746 98.1763672,14.3897177 94.8563196,10.0231491 C94.6174053,9.70824712 94.6658339,9.26177653 94.9671672,9.00726673 L97.7620339,6.64550202 C98.0838148,6.37265888 98.5670243,6.42550202 98.82531,6.75873732 C103.477681,12.7591295 104.207339,21.0015805 100.682815,27.7288354 C100.486948,28.103051 100.020958,28.2400118 99.6561291,28.0286393" id="Fill-10" fill="#5BBA47"></path>
            </g>
            <g id="2" transform="translate(0.000000, 45.294118)" fill="#5BBA47">
                <polygon id="Fill-11" points="4.36610476 4.3622549 5.27333333 2.33480392 6.35275238 0 8.71929524 0 8.71929524 8.55303922 6.36459048 8.55303922 6.36459048 5.07509804 6.3161619 5.07509804 5.71457143 6.45117647 5.30992381 7.45843137 3.40937143 7.45843137 2.99288571 6.43931373 2.40420952 5.03843137 2.36761905 5.03843137 2.36761905 8.55303922 0 8.55303922 0 0 2.2933619 0 3.28668571 2.1622549 4.29292381 4.3622549"></polygon>
                <polygon id="Fill-12" points="13.5858286 3.19539216 14.1863429 1.76970588 14.9224571 0 17.4364381 0 14.7502667 5.24764706 14.7502667 8.55303922 12.3589714 8.55303922 12.3589714 5.24764706 9.68571429 0 12.2244476 0 12.9476476 1.76970588 13.5363238 3.19539216"></polygon>
                <path d="M24.0711524,4.11637255 C24.3165238,4.18970588 24.521,4.29862745 24.684581,4.44205882 C24.8481619,4.5854902 24.9805333,4.74294118 25.0827714,4.9154902 C25.1850095,5.08696078 25.2560381,5.26705882 25.2969333,5.45578431 C25.3378286,5.6445098 25.3593524,5.82029412 25.3593524,5.98421569 C25.3593524,6.36921569 25.2829429,6.71970588 25.1322762,7.03460784 C24.9805333,7.35058824 24.7739048,7.62127451 24.5123905,7.84558824 C24.2508762,8.07098039 23.9420095,8.24568627 23.5868667,8.36862745 C23.2306476,8.49156863 22.8442952,8.55303922 22.4278095,8.55303922 L18.2952381,8.55303922 L18.2952381,0 L22.1458476,0 C22.6688762,0 23.125181,0.0593137255 23.5136857,0.177941176 C23.9011143,0.296568627 24.2228952,0.464803922 24.4758,0.681568627 C24.7287048,0.899411765 24.9170381,1.15715686 25.0397238,1.45588235 C25.1624095,1.75460784 25.2237524,2.08460784 25.2237524,2.44480392 C25.2237524,2.59254902 25.2076095,2.74784314 25.1753238,2.91176471 C25.1419619,3.07568627 25.0827714,3.23421569 24.9966762,3.38519608 C24.9116571,3.5372549 24.7922,3.67852941 24.6415333,3.80901961 C24.4897905,3.94058824 24.300381,4.04303922 24.0711524,4.11637255 M22.6979333,2.61735294 C22.6979333,2.40382353 22.6215238,2.23558824 22.4708571,2.11372549 C22.3191143,1.99078431 22.1254,1.92931373 21.8886381,1.92931373 L20.7597143,1.92931373 L20.7597143,3.28058824 L21.8886381,3.28058824 C22.1501524,3.28058824 22.3503238,3.22343137 22.4891524,3.10911765 C22.627981,2.99372549 22.6979333,2.82980392 22.6979333,2.61735294 M22.8442952,5.83647059 C22.8442952,5.61539216 22.775419,5.43745098 22.6365905,5.30264706 C22.4977619,5.16676471 22.2846762,5.09990196 21.9984095,5.09990196 L20.7597143,5.09990196 L20.7597143,6.62372549 L21.9984095,6.62372549 C22.2846762,6.62372549 22.4977619,6.54931373 22.6365905,6.40264706 C22.775419,6.25490196 22.8442952,6.06617647 22.8442952,5.83647059" id="Fill-13"></path>
                <path d="M29.3358762,0 C29.9493048,0 30.4787905,0.0905882353 30.9243333,0.270686275 C31.3698762,0.450784314 31.7390095,0.700980392 32.0338857,1.02019608 C32.3276857,1.33941176 32.5450762,1.71901961 32.6839048,2.15686275 C32.8227333,2.59470588 32.8926857,3.06813725 32.8926857,3.57607843 L32.8926857,5.17323529 C32.8926857,5.71460784 32.8162762,6.20421569 32.6656095,6.64205882 C32.5138667,7.08098039 32.2889429,7.45519608 31.9908381,7.76686275 C31.6927333,8.07852941 31.3203714,8.32009804 30.8748286,8.49156863 C30.4292857,8.66411765 29.9159429,8.74931373 29.3358762,8.74931373 C28.6976952,8.74931373 28.1563714,8.65333333 27.7108286,8.46137255 C27.2652857,8.26833333 26.9036857,8.00843137 26.6260286,7.68058824 C26.3472952,7.3527451 26.1449714,6.97421569 26.0190571,6.54392157 C25.8920667,6.11362745 25.8285714,5.65745098 25.8285714,5.17323529 L25.8285714,3.57607843 C25.8285714,3.1177451 25.8920667,2.67343137 26.0190571,2.24313725 C26.1449714,1.81284314 26.3494476,1.43215686 26.6314095,1.1 C26.9133714,0.767843137 27.2760476,0.50254902 27.7172857,0.300882353 C28.1585238,0.100294118 28.6976952,0 29.3358762,0 M29.3358762,1.99078431 C29.1400095,1.99078431 28.9742762,2.02745098 28.8397524,2.10186275 C28.7041524,2.17519608 28.5976095,2.27333333 28.5201238,2.39627451 C28.4426381,2.51921569 28.3856,2.65833333 28.3490095,2.81362745 C28.312419,2.97 28.2930476,3.12960784 28.2930476,3.29352941 L28.2930476,5.46872549 C28.2930476,5.64019608 28.3102667,5.80411765 28.3425524,5.9604902 C28.3748381,6.11578431 28.4308,6.2527451 28.5082857,6.37137255 C28.5857714,6.49107843 28.6923143,6.58490196 28.8268381,6.655 C28.9613619,6.72401961 29.1314,6.75852941 29.3358762,6.75852941 C29.7286857,6.75852941 30.0084952,6.63990196 30.176381,6.40264706 C30.3431905,6.16539216 30.4271333,5.85372549 30.4271333,5.46872549 L30.4271333,3.29352941 C30.4271333,2.94088235 30.3453429,2.63568627 30.1817619,2.37794118 C30.018181,2.12019608 29.736219,1.99078431 29.3358762,1.99078431" id="Fill-14"></path>
                <path d="M37.9454,0 C38.5588286,0 39.0872381,0.0905882353 39.5338571,0.270686275 C39.9794,0.450784314 40.3485333,0.700980392 40.6434095,1.02019608 C40.9372095,1.33941176 41.1546,1.71901961 41.2934286,2.15686275 C41.4322571,2.59470588 41.5022095,3.06813725 41.5022095,3.57607843 L41.5022095,5.17323529 C41.5022095,5.71460784 41.4258,6.20421569 41.2751333,6.64205882 C41.1233905,7.08098039 40.8984667,7.45519608 40.6003619,7.76686275 C40.3022571,8.07852941 39.9298952,8.32009804 39.4843524,8.49156863 C39.0388095,8.66411765 38.5254667,8.74931373 37.9454,8.74931373 C37.307219,8.74931373 36.7658952,8.65333333 36.3203524,8.46137255 C35.8748095,8.26833333 35.5132095,8.00843137 35.2355524,7.68058824 C34.956819,7.3527451 34.7544952,6.97421569 34.628581,6.54392157 C34.5015905,6.11362745 34.4380952,5.65745098 34.4380952,5.17323529 L34.4380952,3.57607843 C34.4380952,3.1177451 34.5015905,2.67343137 34.628581,2.24313725 C34.7544952,1.81284314 34.9589714,1.43215686 35.2409333,1.1 C35.5228952,0.767843137 35.8855714,0.50254902 36.3268095,0.300882353 C36.7680476,0.100294118 37.307219,0 37.9454,0 M37.9454,1.99078431 C37.7495333,1.99078431 37.5838,2.02745098 37.4482,2.10186275 C37.3136762,2.17519608 37.2071333,2.27333333 37.1296476,2.39627451 C37.0521619,2.51921569 36.9951238,2.65833333 36.9585333,2.81362745 C36.9219429,2.97 36.9025714,3.12960784 36.9025714,3.29352941 L36.9025714,5.46872549 C36.9025714,5.64019608 36.9197905,5.80411765 36.9520762,5.9604902 C36.9843619,6.11578431 37.0403238,6.2527451 37.1178095,6.37137255 C37.1952952,6.49107843 37.3018381,6.58490196 37.4363619,6.655 C37.5719619,6.72401961 37.7409238,6.75852941 37.9454,6.75852941 C38.3382095,6.75852941 38.618019,6.63990196 38.7859048,6.40264706 C38.9527143,6.16539216 39.0366571,5.85372549 39.0366571,5.46872549 L39.0366571,3.29352941 C39.0366571,2.94088235 38.9548667,2.63568627 38.7912857,2.37794118 C38.6277048,2.12019608 38.3457429,1.99078431 37.9454,1.99078431" id="Fill-15"></path>
                <path d="M47.8334381,2.56882353 C47.5966762,2.42970588 47.3771333,2.31862745 47.1769619,2.23666667 C46.9767905,2.15470588 46.7927619,2.09539216 46.6259524,2.05872549 C46.4580667,2.02205882 46.3063238,1.99941176 46.1718,1.99078431 C46.0372762,1.98323529 45.9199714,1.97892157 45.8220381,1.97892157 C45.511019,1.97892157 45.2699524,2.02421569 45.0988381,2.11372549 C44.9266476,2.20431373 44.8416286,2.35529412 44.8416286,2.56882353 C44.8416286,2.75754902 44.9470952,2.91284314 45.160181,3.03578431 C45.3721905,3.15872549 45.7693048,3.2654902 46.3493714,3.355 C46.7830762,3.42941176 47.1748095,3.52754902 47.5267238,3.6504902 C47.8786381,3.77343137 48.1767429,3.9395098 48.4221143,4.14764706 C48.6674857,4.35686275 48.8568952,4.61245098 48.9924952,4.9154902 C49.127019,5.21960784 49.194819,5.58735294 49.194819,6.02196078 C49.194819,6.46411765 49.1065714,6.85343137 48.9311524,7.18882353 C48.7546571,7.52529412 48.5114381,7.81 48.2014952,8.04294118 C47.8904762,8.27696078 47.522419,8.4527451 47.0973238,8.57137255 C46.6722286,8.69 46.2105429,8.75039216 45.7122667,8.75039216 C45.4173905,8.75039216 45.1106762,8.73529412 44.7921238,8.7072549 C44.4735714,8.67813725 44.155019,8.62098039 43.8353905,8.53470588 C43.5168381,8.44843137 43.2004381,8.32656863 42.8851143,8.16588235 C42.5708667,8.00627451 42.2663048,7.79166667 41.9714286,7.52098039 L43.0874381,5.82568627 C43.3166667,6.03058824 43.5469714,6.19666667 43.7805048,6.32284314 C44.0129619,6.45009804 44.2421905,6.54823529 44.4671143,6.61833333 C44.6920381,6.68735294 44.9083524,6.73480392 45.1171333,6.75960784 C45.3259143,6.78333333 45.5239333,6.79627451 45.7122667,6.79627451 C46.0964667,6.79627451 46.3719714,6.72617647 46.5398571,6.58705882 C46.7066667,6.44794118 46.7906095,6.28401961 46.7906095,6.09529412 C46.7906095,5.89901961 46.7238857,5.73294118 46.5882857,5.59813725 C46.4537619,5.46333333 46.1696476,5.34578431 45.7359429,5.24764706 C45.2538095,5.14088235 44.8147238,5.03519608 44.4186857,4.92843137 C44.0215714,4.82166667 43.6825714,4.67823529 43.4006095,4.49813725 C43.1186476,4.31803922 42.9012571,4.08509804 42.7505905,3.79715686 C42.5988476,3.51137255 42.5235143,3.12960784 42.5235143,2.65509804 C42.5235143,2.19568627 42.6139143,1.79882353 42.7936381,1.46235294 C42.9733619,1.12696078 43.2101238,0.850882353 43.505,0.633039216 C43.7988,0.41627451 44.132419,0.256666667 44.5037048,0.154215686 C44.8760667,0.0517647059 45.2581143,0 45.6509238,0 C46.1987048,0 46.7464857,0.063627451 47.2942667,0.190882353 C47.8420476,0.318137255 48.3564667,0.537058824 48.8386,0.84872549 L47.8334381,2.56882353 Z" id="Fill-16"></path>
                <polygon id="Fill-17" points="54.2626 1.99078431 54.2626 8.55303922 51.7981238 8.55303922 51.7981238 1.99078431 49.5047619 1.99078431 49.5047619 0 56.5559619 0 56.5559619 1.99078431"></polygon>
                <polygon id="Fill-18" points="58.1142857 8.55303922 58.1142857 0 64.6629048 0 64.6629048 1.99078431 60.5787619 1.99078431 60.5787619 3.18245098 63.9515429 3.18245098 63.9515429 5.16137255 60.5787619 5.16137255 60.5787619 6.5622549 64.6629048 6.5622549 64.6629048 8.55303922"></polygon>
                <path d="M70.0621524,8.55303922 L68.8234571,5.41911765 L68.0873429,5.41911765 L68.0873429,8.55303922 L65.647619,8.55303922 L65.647619,0 L69.6693429,0 C70.1191905,0 70.5259905,0.0614705882 70.8897429,0.184411765 C71.2534952,0.307352941 71.5645143,0.485294118 71.8217238,0.719313725 C72.0789333,0.952254902 72.2758762,1.23480392 72.4104,1.56696078 C72.5449238,1.89911765 72.6127238,2.27333333 72.6127238,2.69176471 C72.6127238,3.18245098 72.4943429,3.63107843 72.257581,4.03656863 C72.0197429,4.44313725 71.6323143,4.7677451 71.0920667,5.01362745 L72.6256381,8.55303922 L70.0621524,8.55303922 Z M70.1600857,2.72843137 C70.1600857,2.44156863 70.0621524,2.23666667 69.8662857,2.11372549 C69.6693429,1.99078431 69.4616381,1.92931373 69.241019,1.92931373 L68.0873429,1.92931373 L68.0873429,3.51460784 L69.3142,3.51460784 C69.4035238,3.51460784 69.4982286,3.5027451 69.5961619,3.47794118 C69.6940952,3.45313725 69.7866476,3.41 69.8716667,3.34852941 C69.9577619,3.28705882 70.0277143,3.20509804 70.0804476,3.10264706 C70.133181,3.00019608 70.1600857,2.87617647 70.1600857,2.72843137 L70.1600857,2.72843137 Z" id="Fill-19"></path>
                <polygon id="Fill-20" points="73.1809524 6.47058824 75.817619 6.47058824 75.817619 8.855 73.1809524 8.855"></polygon>
                <path d="M81.9002476,8.55303922 L80.6615524,5.41911765 L79.9254381,5.41911765 L79.9254381,8.55303922 L77.4857143,8.55303922 L77.4857143,0 L81.5074381,0 C81.9572857,0 82.3640857,0.0614705882 82.7278381,0.184411765 C83.0915905,0.307352941 83.4026095,0.485294118 83.659819,0.719313725 C83.9181048,0.952254902 84.1139714,1.23480392 84.2484952,1.56696078 C84.3840952,1.89911765 84.450819,2.27333333 84.450819,2.69176471 C84.450819,3.18245098 84.3324381,3.63107843 84.0956762,4.03656863 C83.8578381,4.44313725 83.4704095,4.7677451 82.9301619,5.01362745 L84.4637333,8.55303922 L81.9002476,8.55303922 Z M81.998181,2.72843137 C81.998181,2.44156863 81.9002476,2.23666667 81.704381,2.11372549 C81.5074381,1.99078431 81.2997333,1.92931373 81.0791143,1.92931373 L79.9254381,1.92931373 L79.9254381,3.51460784 L81.1522952,3.51460784 C81.241619,3.51460784 81.3363238,3.5027451 81.4342571,3.47794118 C81.5321905,3.45313725 81.6247429,3.41 81.7097619,3.34852941 C81.7958571,3.28705882 81.8658095,3.20509804 81.9185429,3.10264706 C81.9712762,3.00019608 81.998181,2.87617647 81.998181,2.72843137 L81.998181,2.72843137 Z" id="Fill-21"></path>
                <path d="M93.2572857,5.11176471 C93.2572857,5.57117647 93.1873333,6.01117647 93.0485048,6.43284314 C92.9096762,6.8545098 92.6933619,7.22764706 92.3984857,7.55117647 C92.1046857,7.87470588 91.7258667,8.13245098 91.264181,8.3254902 C90.8024952,8.51745098 90.2525619,8.6145098 89.6154571,8.6145098 C88.9772762,8.6145098 88.4359524,8.52176471 87.9904095,8.33735294 C87.5448667,8.15294118 87.1811143,7.90166667 86.8991524,7.58137255 C86.6171905,7.26215686 86.4127143,6.8922549 86.2857238,6.4695098 C86.1587333,6.04784314 86.0952381,5.59921569 86.0952381,5.12362745 L86.0952381,0 L88.5478762,0 L88.5478762,5.28431373 C88.5478762,6.18480392 88.9245429,6.63558824 89.6768,6.63558824 C89.8565238,6.63558824 90.0158,6.59892157 90.1546286,6.5245098 C90.2934571,6.45117647 90.4096857,6.34872549 90.5043905,6.21823529 C90.598019,6.08666667 90.6701238,5.93892157 90.7185524,5.775 C90.7680571,5.61215686 90.7928095,5.43529412 90.7928095,5.24656863 L90.7928095,0 L93.2572857,0 L93.2572857,5.11176471 Z" id="Fill-22"></path>
            </g>
        </g>
    </g>
</svg>