<?xml version="1.0" encoding="UTF-8" standalone="no"?>
<svg width="65px" height="38px" viewBox="0 0 65 38" version="1.1" xmlns="http://www.w3.org/2000/svg" xmlns:xlink="http://www.w3.org/1999/xlink">
    <!-- Generator: Sketch 41.2 (35397) - http://www.bohemiancoding.com/sketch -->
    <title>Slice 1</title>
    <desc>Created with Sketch.</desc>
    <defs></defs>
    <g id="Page-1" stroke="none" stroke-width="1" fill="none" fill-rule="evenodd">
        <g id="Group-50" transform="translate(3.000000, 3.000000)" stroke="#63B843" stroke-width="5">
            <path d="M57.757819,16.1949078 C50.262019,7.86007959 41.0780511,3.6849972 29.6975473,3.6849972 C18.4414669,3.6849972 8.23232981,8.72014067 0.757818984,16.8946708" id="Oval-29" transform="translate(29.257819, 10.289834) rotate(6.000000) translate(-29.257819, -10.289834) "></path>
            <path d="M45.7843316,23.2899425 C40.8301669,18.5391278 34.4458672,16.8415634 28.2624817,16.8415634 C22.0790962,16.8415634 15.4641191,19.0819873 10.5108395,23.8290485" id="Oval-29" transform="translate(28.147586, 20.335306) rotate(6.000000) translate(-28.147586, -20.335306) "></path>
            <path d="M33.368706,31.3664337 C31.5849014,29.6558478 29.2861602,29.04462 27.0597604,29.04462 C24.8333607,29.04462 22.4515613,29.8513106 20.6680755,31.5605451" id="Oval-29" transform="translate(27.018391, 30.302583) rotate(6.000000) translate(-27.018391, -30.302583) "></path>
        </g>
    </g>
</svg>