<?xml version="1.0" encoding="UTF-8" standalone="no"?>
<svg width="27px" height="16px" viewBox="0 0 27 16" version="1.1" xmlns="http://www.w3.org/2000/svg" xmlns:xlink="http://www.w3.org/1999/xlink">
    <!-- Generator: Sketch 42 (36781) - http://www.bohemiancoding.com/sketch -->
    <title>Group 50</title>
    <desc>Created with Sketch.</desc>
    <defs></defs>
    <g id="Page-1" stroke="none" stroke-width="1" fill="none" fill-rule="evenodd">
        <g id="Group-50" transform="translate(1.000000, 0.615082)" stroke="#63B843" stroke-width="3">
            <path d="M25.0782898,7.32235179 C21.8236336,3.55384968 17.8359794,1.66613149 12.8945952,1.66613149 C8.00723535,1.66613149 3.57445548,3.94271696 0.329042966,7.63874204" id="Oval-29" transform="translate(12.703666, 4.652437) rotate(6.000000) translate(-12.703666, -4.652437) "></path>
            <path d="M19.8794337,10.5302947 C17.7283487,8.38226544 14.956303,7.61473009 12.2714936,7.61473009 C9.58668424,7.61473009 6.71447894,8.62771348 4.56377825,10.7740457" id="Oval-29" transform="translate(12.221606, 9.194388) rotate(6.000000) translate(-12.221606, -9.194388) "></path>
            <path d="M14.4886025,14.1819926 C13.7140793,13.4085697 12.715972,13.1322097 11.7492753,13.1322097 C10.7825785,13.1322097 9.7484076,13.4969461 8.97402284,14.269758" id="Oval-29" transform="translate(11.731313, 13.700984) rotate(6.000000) translate(-11.731313, -13.700984) "></path>
        </g>
    </g>
</svg>