<?xml version="1.0" encoding="UTF-8" standalone="no"?>
<svg width="28px" height="20px" viewBox="0 0 28 20" version="1.1" xmlns="http://www.w3.org/2000/svg" xmlns:xlink="http://www.w3.org/1999/xlink">
    <!-- Generator: Sketch 42 (36781) - http://www.bohemiancoding.com/sketch -->
    <title>icon_burger-menu</title>
    <desc>Created with Sketch.</desc>
    <defs></defs>
    <g id="Page-1" stroke="none" stroke-width="1" fill="none" fill-rule="evenodd">
        <path d="M0,1.0093689 C0,0.451909848 0.439626506,0 0.996111952,0 L26.9920065,0 C27.5421439,0 27.9881184,0.443353176 27.9881184,1.0093689 L27.9881184,2.9906311 C27.9881184,3.54809015 27.5484919,4 26.9920065,4 L0.996111952,4 C0.445974512,4 0,3.55664682 0,2.9906311 L0,1.0093689 Z M0,9.0093689 C0,8.45190985 0.439626506,8 0.996111952,8 L26.9920065,8 C27.5421439,8 27.9881184,8.44335318 27.9881184,9.0093689 L27.9881184,10.9906311 C27.9881184,11.5480902 27.5484919,12 26.9920065,12 L0.996111952,12 C0.445974512,12 0,11.5566468 0,10.9906311 L0,9.0093689 Z M0,17.0093689 C0,16.4519098 0.439626506,16 0.996111952,16 L26.9920065,16 C27.5421439,16 27.9881184,16.4433532 27.9881184,17.0093689 L27.9881184,18.9906311 C27.9881184,19.5480902 27.5484919,20 26.9920065,20 L0.996111952,20 C0.445974512,20 0,19.5566468 0,18.9906311 L0,17.0093689 Z" id="icon_burger-menu" fill="#121820"></path>
    </g>
</svg>