<?xml version="1.0" encoding="UTF-8" standalone="no"?>
<svg width="160px" height="160px" viewBox="0 0 160 160" version="1.1" xmlns="http://www.w3.org/2000/svg" xmlns:xlink="http://www.w3.org/1999/xlink">
    <!-- Generator: Sketch 41.2 (35397) - http://www.bohemiancoding.com/sketch -->
    <title>Slice 1</title>
    <desc>Created with Sketch.</desc>
    <defs>
        <circle id="path-1" cx="80" cy="80" r="80"></circle>
    </defs>
    <g id="Page-1" stroke="none" stroke-width="1" fill="none" fill-rule="evenodd">
        <g id="Path-22-+-Oval-25-+-Oval-20-+-Triangle-2-+-Combined-Shape-+-Combined-Shape-+-Rectangle-44-Mask">
            <mask id="mask-2" fill="white">
                <use xlink:href="#path-1"></use>
            </mask>
            <use id="Mask" fill="#5BBA47" xlink:href="#path-1"></use>
            <path d="M50.0904991,105.159659 L109.532947,162.606845 C109.532947,162.606845 140.103109,153.671113 152.561359,145.125945 C165.019608,136.580777 157.502622,119.853297 157.502622,119.853297 L103.597082,60.5211896 L65.0697857,89.3425221 L50.0904991,105.159659 Z" id="Path-22" fill="#357329" mask="url(#mask-2)"></path>
            <circle id="Oval-25" fill="#469038" mask="url(#mask-2)" cx="81" cy="80" r="28"></circle>
            <path d="M57.0885112,96.4133511 C62.3167108,104.015409 71.0762486,109 81,109 L81,109 C97.0162577,109 110,96.0162577 110,80 C110,63.9837423 97.0162577,51 81,51 C64.9837423,51 52,63.9837423 52,80" id="Oval-20" stroke="#FFFFFF" stroke-width="4" stroke-linecap="round" mask="url(#mask-2)"></path>
            <polygon id="Triangle-2" fill="#FFFFFF" mask="url(#mask-2)" transform="translate(52.506467, 91.788582) rotate(-45.000000) translate(-52.506467, -91.788582) " points="52.5064668 84.2885822 64.5064668 99.2885822 40.5064668 99.2885822"></polygon>
            <path d="M84.3061757,44 L84.3061757,49 L76.3061757,49 L76.3061757,44 L74.3130212,44 C73.7569558,44 73.3061757,43.5621186 73.3061757,42.9970707 L73.3061757,38.0029293 C73.3061757,37.4490268 73.7561245,37 74.3130212,37 L86.2993302,37 C86.8553956,37 87.3061757,37.4378814 87.3061757,38.0029293 L87.3061757,42.9970707 C87.3061757,43.5509732 86.856227,44 86.2993302,44 L84.3061757,44 Z M49.0067615,54.0645469 C48.6198387,53.677624 48.6217655,53.0483712 49.0115463,52.6585904 L53.9647662,47.7053706 C54.3543316,47.3158052 54.9890243,47.3188876 55.3707226,47.7005858 L58.2121916,50.5420549 C58.5991145,50.9289777 58.5971876,51.5582305 58.2074068,51.9480113 L53.254187,56.9012311 C52.8646216,57.2907966 52.2299288,57.2877141 51.8482306,56.9060159 L49.0067615,54.0645469 Z M105.848231,47.7005858 C106.235153,47.313663 106.864406,47.3155898 107.254187,47.7053706 L112.207407,52.6585904 C112.596972,53.0481559 112.59389,53.6828486 112.212192,54.0645469 L109.370723,56.9060159 C108.9838,57.2929388 108.354547,57.2910119 107.964766,56.9012311 L103.011546,51.9480113 C102.621981,51.5584459 102.625063,50.9237531 103.006762,50.5420549 L105.848231,47.7005858 Z" id="Combined-Shape" fill="#FFFFFF" mask="url(#mask-2)"></path>
            <path d="M80.7178846,63 C81.8224541,63 82.7178846,62.1045695 82.7178846,61 C82.7178846,59.8954305 81.8224541,59 80.7178846,59 C79.6133151,59 78.7178846,59.8954305 78.7178846,61 C78.7178846,62.1045695 79.6133151,63 80.7178846,63 Z M67.7178846,69 C68.8224541,69 69.7178846,68.1045695 69.7178846,67 C69.7178846,65.8954305 68.8224541,65 67.7178846,65 C66.6133151,65 65.7178846,65.8954305 65.7178846,67 C65.7178846,68.1045695 66.6133151,69 67.7178846,69 Z M93.7178846,69 C94.8224541,69 95.7178846,68.1045695 95.7178846,67 C95.7178846,65.8954305 94.8224541,65 93.7178846,65 C92.6133151,65 91.7178846,65.8954305 91.7178846,67 C91.7178846,68.1045695 92.6133151,69 93.7178846,69 Z M98.7178846,81 C99.8224541,81 100.717885,80.1045695 100.717885,79 C100.717885,77.8954305 99.8224541,77 98.7178846,77 C97.6133151,77 96.7178846,77.8954305 96.7178846,79 C96.7178846,80.1045695 97.6133151,81 98.7178846,81 Z M93.7178846,95 C94.8224541,95 95.7178846,94.1045695 95.7178846,93 C95.7178846,91.8954305 94.8224541,91 93.7178846,91 C92.6133151,91 91.7178846,91.8954305 91.7178846,93 C91.7178846,94.1045695 92.6133151,95 93.7178846,95 Z M80.7178846,100 C81.8224541,100 82.7178846,99.1045695 82.7178846,98 C82.7178846,96.8954305 81.8224541,96 80.7178846,96 C79.6133151,96 78.7178846,96.8954305 78.7178846,98 C78.7178846,99.1045695 79.6133151,100 80.7178846,100 Z" id="Combined-Shape" fill="#FFFFFF" mask="url(#mask-2)"></path>
            <path d="M82.6684375,71.3984445 C82.68144,70.8517495 83.134641,70.4085656 83.6909372,70.4085656 L84.6930241,70.4085656 C85.2447325,70.4085656 85.6812771,70.8586007 85.6684375,71.3984445 L85.4337029,81.2679267 C85.4207004,81.8146217 84.9674994,82.2578056 84.4112032,82.2578056 L83.4091163,82.2578056 C82.8574078,82.2578056 82.4208633,81.8077705 82.4337029,81.2679267 L82.6684375,71.3984445 Z" id="Rectangle-44" fill="#FFFFFF" mask="url(#mask-2)" transform="translate(84.051070, 76.333186) rotate(45.000000) translate(-84.051070, -76.333186) "></path>
        </g>
    </g>
</svg>