<?xml version="1.0" encoding="UTF-8" standalone="no"?>
<svg width="160px" height="161px" viewBox="0 0 160 161" version="1.1" xmlns="http://www.w3.org/2000/svg" xmlns:xlink="http://www.w3.org/1999/xlink">
    <!-- Generator: Sketch 41.2 (35397) - http://www.bohemiancoding.com/sketch -->
    <title>Slice 1</title>
    <desc>Created with Sketch.</desc>
    <defs>
        <circle id="path-1" cx="80" cy="80.3028765" r="80"></circle>
    </defs>
    <g id="Page-1" stroke="none" stroke-width="1" fill="none" fill-rule="evenodd">
        <g id="Group-45">
            <mask id="mask-2" fill="white">
                <use xlink:href="#path-1"></use>
            </mask>
            <use id="Mask" fill="#5BBA47" xlink:href="#path-1"></use>
            <polygon id="Path-2" fill="#357329" mask="url(#mask-2)" points="122.681518 182.579374 182.272865 197.657843 198.729599 163.049577 140.925355 101 51.5931556 101 59.3294219 182.579374"></polygon>
            <ellipse id="Oval-4" fill="#FFFFFF" mask="url(#mask-2)" cx="109.432258" cy="56.1157149" rx="11.7397906" ry="11.8128384"></ellipse>
            <path d="M88,81.3385691 C88,76.3716294 92.0307956,72.3451292 96.9910254,72.3451292 L121.650307,72.3451292 C126.615913,72.3451292 130.641332,76.3832985 130.641332,81.3385691 L130.641332,96.9666285 L88,96.9666285 L88,81.3385691 Z" id="Combined-Shape" fill="#4BA438" mask="url(#mask-2)"></path>
            <polygon id="Path-89" fill="#FFFFFF" mask="url(#mask-2)" points="103.818712 72.9598367 108.661312 79.8520367 106.398925 85.4838976 97.1889114 72.8327415"></polygon>
            <polyline id="Path-89" fill="#FFFFFF" mask="url(#mask-2)" points="115.031512 72.9598367 110.188911 79.8520367 112.451299 85.4838976 121.661312 72.8327415"></polyline>
            <rect id="Rectangle-51" fill="#4BA438" mask="url(#mask-2)" x="77" y="100" width="64" height="7" rx="2"></rect>
            <ellipse id="Oval-4" fill="#FFFFFF" mask="url(#mask-2)" cx="54.0828034" cy="51.4559258" rx="14.8562768" ry="15.0013443"></ellipse>
            <path d="M28,80.3032531 C28,75.3324824 32.0327004,71.3028765 37.0081442,71.3028765 L44.9260246,71.3028765 C44.9260246,71.3028765 47.0226983,74.1244485 48.5609653,74.9981762 C50.0992323,75.8719038 54.4272188,76.6995056 54.4272188,76.6995056 C54.4272188,76.6995056 58.4254647,75.8714597 59.931593,74.9981762 C61.4377213,74.1248926 63.7346378,71.3028765 63.7346378,71.3028765 L72.9546377,71.3028765 C77.9287424,71.3028765 81.9610511,75.3357341 81.9610511,80.3111722 L81.9610511,118.603888 L71.805902,119.079121 L71.805902,169.748849 L37.4941746,160.432718 L37.4941746,118.995507 L28,119.079121 L28,80.3032531 Z" id="Combined-Shape" fill="#469038" mask="url(#mask-2)"></path>
            <path d="M44.1729516,71.0264764 C44.1729516,71.0264764 45.7882487,73.3297449 47.4392275,74.4615605 C49.0902063,75.5933761 50.5806925,76.1457377 53.7202476,76.2286317 C56.8598027,76.3115257 58.27062,75.9938254 60.4115701,74.8040707 C62.5525201,73.6143159 63.72818,71 63.72818,71" id="Path-83" stroke="#FFFFFF" stroke-width="3" mask="url(#mask-2)"></path>
        </g>
    </g>
</svg>