<?xml version="1.0" encoding="UTF-8" standalone="no"?>
<svg width="160px" height="160px" viewBox="0 0 160 160" version="1.1" xmlns="http://www.w3.org/2000/svg" xmlns:xlink="http://www.w3.org/1999/xlink">
    <!-- Generator: Sketch 41.2 (35397) - http://www.bohemiancoding.com/sketch -->
    <title>Slice 1</title>
    <desc>Created with Sketch.</desc>
    <defs>
        <circle id="path-1" cx="80" cy="80" r="80"></circle>
    </defs>
    <g id="Page-1" stroke="none" stroke-width="1" fill="none" fill-rule="evenodd">
        <g id="Path-22-+-Rectangle-46-+-Star-+-Star-+-Star-+-Star-+-Star-Mask">
            <mask id="mask-2" fill="white">
                <use xlink:href="#path-1"></use>
            </mask>
            <use id="Mask" fill="#5BBA47" xlink:href="#path-1"></use>
            <path d="M31,92.0115981 L99.7370455,162.428656 C99.7370455,162.428656 167.568679,148.149923 180.026929,139.604756 C192.485178,131.059588 174.937102,129.369003 174.937102,129.369003 L123.500807,66.6218783 L92.5353558,83.8213325 L31,92.0115981 Z" id="Path-22" fill="#357329" mask="url(#mask-2)"></path>
            <path d="M29,68.9953379 C29,66.236489 31.2316886,64 33.9926688,64 L120.007331,64 C122.764706,64 125,66.2356767 125,68.9953379 L125,88.7492265 C125,91.5080754 122.767721,93.7445644 120.008543,93.7445644 L90.1618531,93.7445644 L76.0056198,104 L76.0056198,93.7445644 L34.0081539,93.7445644 C31.2422269,93.7445644 29,91.5088877 29,88.7492265 L29,68.9953379 Z" id="Rectangle-46" fill="#469038" mask="url(#mask-2)"></path>
            <polygon id="Star" fill="#FFFFFF" mask="url(#mask-2)" points="44.6755008 82.1972799 40.5498144 84.2980351 41.3377504 79.8485642 38 76.6974314 42.6126576 76.0482623 44.6755008 72 46.738344 76.0482623 51.3510015 76.6974314 48.0132512 79.8485642 48.8011871 84.2980351"></polygon>
            <polygon id="Star" fill="#FFFFFF" mask="url(#mask-2)" points="60.6755008 82.1972799 56.5498144 84.2980351 57.3377504 79.8485642 54 76.6974314 58.6126576 76.0482623 60.6755008 72 62.738344 76.0482623 67.3510015 76.6974314 64.0132512 79.8485642 64.8011871 84.2980351"></polygon>
            <polygon id="Star" fill="#FFFFFF" mask="url(#mask-2)" points="76.6755008 82.1972799 72.5498144 84.2980351 73.3377504 79.8485642 70 76.6974314 74.6126576 76.0482623 76.6755008 72 78.738344 76.0482623 83.3510015 76.6974314 80.0132512 79.8485642 80.8011871 84.2980351"></polygon>
            <polygon id="Star" fill="#FFFFFF" mask="url(#mask-2)" points="93.6755008 82.1972799 89.5498144 84.2980351 90.3377504 79.8485642 87 76.6974314 91.6126576 76.0482623 93.6755008 72 95.738344 76.0482623 100.351002 76.6974314 97.0132512 79.8485642 97.8011871 84.2980351"></polygon>
            <polygon id="Star" fill="#FFFFFF" mask="url(#mask-2)" points="109.675501 82.1972799 105.549814 84.2980351 106.33775 79.8485642 103 76.6974314 107.612658 76.0482623 109.675501 72 111.738344 76.0482623 116.351002 76.6974314 113.013251 79.8485642 113.801187 84.2980351"></polygon>
        </g>
    </g>
</svg>