<?xml version="1.0" encoding="UTF-8" standalone="no"?>
<svg width="81px" height="141px" viewBox="0 0 81 141" version="1.1" xmlns="http://www.w3.org/2000/svg" xmlns:xlink="http://www.w3.org/1999/xlink">
    <!-- Generator: Sketch 42 (36781) - http://www.bohemiancoding.com/sketch -->
    <title>шлагбаум</title>
    <desc>Created with Sketch.</desc>
    <defs></defs>
    <g id="Page-1" stroke="none" stroke-width="1" fill="none" fill-rule="evenodd">
        <g id="шлагбаум">
            <polygon id="Rectangle-71" fill="#D8D8D8" points="70.9068378 4.13105895 80.0377927 4.13105895 80.0377927 128.176201 71.1526593 132.804968"></polygon>
            <polygon id="Path-38" fill="#F0F4F6" points="7.8995141 41.3406748 12.8778213 44.4847549 79.7964825 2.73735482 75.588743 0.31467524"></polygon>
            <polygon id="Path-39" fill="#D8D8D8" points="12.8945923 44.1695744 12.8945923 51.907076 79.8215141 12.5584715 79.8215141 2.16830825"></polygon>
            <polygon id="Path-40" fill="#9EA6AA" points="7.8995141 41.3952344 12.982901 44.5052506 12.906327 52.1618645 7.8995141 49.0275844"></polygon>
            <path d="M66.759586,19.8602424 L71.5662541,17.087324 L71.5662541,132.75475 L66.759586,129.319793 L66.759586,19.8602424 Z" id="Path-41" fill="#9EA6AA"></path>
            <polygon id="Path-42" fill="#B2B9BC" points="59.7791127 129.137967 66.7659324 129.137967 71.4991026 132.673586 66.3084415 132.673586"></polygon>
            <polygon id="Path-42" fill="#9AA4AA" points="35.9868165 129.137967 60.0005599 129.137967 66.14904 132.703127 42.0827575 132.703127"></polygon>
            <polygon id="Path-43" fill="#CAD2D6" points="0.179847712 44.3839053 8.1514736 39.5053112 9.6905753 40.3850738 8.1514736 41.2324987 8.1514736 44.1081105 3.95495485 46.5039857"></polygon>
            <polygon id="Path-43" fill="#CAD2D6" points="12.4404943 51.7901041 20.147892 47.0650038 28.9521409 51.8220342 20.4121202 56.5790645"></polygon>
            <polygon id="Path-44" fill="#272D35" points="0.179847712 44.2301191 3.94374922 46.5463368 7.73915284 44.2301191 7.73915284 48.8819401 20.3392957 56.6357757 20.3239922 62.497092 0.179847712 50.3725827"></polygon>
            <polygon id="Path-45" fill="#464F59" points="20.6142587 56.4110465 28.6842681 51.7898117 28.6842681 57.3835263 20.6165139 62.4972583"></polygon>
            <polygon id="Path-90" fill="#5F6A70" points="42.0329671 132.776981 42.0329671 138.10247 22.7029284 125.546115 22.7029284 120.770308"></polygon>
            <polygon id="Path-91" fill="#8A9296" points="22.9904987 125.931995 13.2593209 128.614585 31.4695473 140.784351 41.8786639 137.834882"></polygon>
        </g>
    </g>
</svg>