<?xml version="1.0" encoding="UTF-8" standalone="no"?>
<svg width="217px" height="369px" viewBox="0 0 217 369" version="1.1" xmlns="http://www.w3.org/2000/svg" xmlns:xlink="http://www.w3.org/1999/xlink">
    <!-- Generator: Sketch 41.2 (35397) - http://www.bohemiancoding.com/sketch -->
    <title>Slice 1</title>
    <desc>Created with Sketch.</desc>
    <defs></defs>
    <g id="Page-1" stroke="none" stroke-width="1" fill="none" fill-rule="evenodd">
        <g id="Group-62">
            <polygon id="Rectangle-71" fill="#D8D8D8" points="195.2213 10.0449898 216.064543 10.0449898 216.064543 341.183876 196.174177 351.230299"></polygon>
            <polygon id="Path-38" fill="#F0F4F6" points="50.4958333 91.4335223 61.9613745 98.3873111 216.081769 6.05423095 206.390923 0.695969906"></polygon>
            <path d="M62,97.6902237 L62,114.803322 L215.856773,27.5199309 L216.13942,6.11535106 C216.13942,6.11535106 215.135919,5.80771018 214.539621,6.11535106 C213.943323,6.42299194 208.965414,9.67072605 208.965414,9.67072605 L62,97.6902237 Z" id="Path-39" fill="#D8D8D8"></path>
            <polygon id="Path-40" fill="#9EA6AA" points="50.4958333 91.5541922 62.2033838 98.4326415 62.0270262 115.36684 50.4958333 108.434726"></polygon>
            <path d="M186.056488,43.9250672 L197.126727,37.79218 L197.126727,351.119231 L186.056488,343.522109 L186.056488,43.9250672 Z" id="Path-41" fill="#9EA6AA"></path>
            <polygon id="Path-42" fill="#B2B9BC" points="96.2805447 343.119961 186.071104 343.119961 196.972071 350.93972 111.318244 350.93972"></polygon>
            <polygon id="Path-42" fill="#9AA4AA" points="53 343.119961 96.7905597 343.119961 110.951127 351.005057 67.0395641 351.005057"></polygon>
            <polygon id="Path-43" fill="#CAD2D6" points="32.7166667 98.1642611 51.0761214 87.3742331 54.6208271 89.3200115 51.0761214 91.1942684 51.0761214 97.5542835 41.4111174 102.853261"></polygon>
            <polygon id="Path-43" fill="#CAD2D6" points="60.9541667 114.544614 78.7050773 104.09407 98.9821464 114.615234 79.3136214 125.136399"></polygon>
            <polygon id="Path-44" fill="#272D35" points="32.7166667 97.8241309 41.3853097 102.946929 50.1265053 97.8241309 50.1265053 108.112603 79.1458992 125.261827 79.1106538 138.22535 32.7166667 111.40947"></polygon>
            <polygon id="Path-45" fill="#464F59" points="79.7791667 124.764792 98.3652084 114.543967 98.3652084 126.915634 79.7843606 138.225718"></polygon>
            <polygon id="Path-90" fill="#5F6A70" points="66.9248918 351.1684 66.9248918 362.946829 22.4058721 335.175833 22.4058721 324.61314"></polygon>
            <polygon id="Path-91" fill="#8A9296" points="23.0681753 336.029287 0.656296011 341.962394 42.5962755 368.878368 66.569516 362.355003"></polygon>
        </g>
    </g>
</svg>