<?xml version="1.0" encoding="UTF-8" standalone="no"?>
<svg width="20px" height="16px" viewBox="0 0 20 16" version="1.1" xmlns="http://www.w3.org/2000/svg" xmlns:xlink="http://www.w3.org/1999/xlink">
    <!-- Generator: Sketch 41.2 (35397) - http://www.bohemiancoding.com/sketch -->
    <title>Slice 1</title>
    <desc>Created with Sketch.</desc>
    <defs></defs>
    <g id="Page-1" stroke="none" stroke-width="1" fill="none" fill-rule="evenodd">
        <path d="M1.28878101,0.70979827 C1.28878101,0.70979827 2.80003759,2.75005691 4.67873166,3.60374462 C6.55742572,4.45743234 9.37001907,5.00303705 9.37001907,5.00303705 C9.37001907,5.00303705 9.22333196,0.892330794 12.04232,0.177164378 C14.861308,-0.538002039 16.1551087,1.14302377 16.1551087,1.14302377 C16.1551087,1.14302377 16.9929548,1.27096669 17.4017605,1.14302377 C17.8105661,1.01508086 18.7349536,0.335615956 18.7349536,0.335615956 C18.7349536,0.335615956 18.5018318,0.904988443 18.1501251,1.39206358 C17.7984183,1.87913872 17.2453644,2.40441041 17.3357649,2.40441041 C17.4081194,2.40441041 17.8297788,2.39148095 18.275994,2.26546695 C18.7222091,2.13945295 19.5552284,1.79291391 19.5552284,1.79291391 C19.5552284,1.79291391 18.8992949,2.54320908 18.5517018,2.87602955 C18.2041086,3.20885002 17.4017605,3.85485976 17.4017605,3.85485976 C17.4017605,3.85485976 17.0715465,7.35007133 16.4811433,8.90310424 C15.8907401,10.4561371 14.0245731,12.7384211 14.0245731,12.7384211 C14.0245731,12.7384211 11.8715202,14.4319955 10.1220155,15.1185153 C8.37251086,15.805035 5.54850319,15.9622414 5.54850319,15.9622414 C5.54850319,15.9622414 4.13011771,15.7959036 2.8739194,15.5201957 C1.6177211,15.2444879 0,14.1632401 0,14.1632401 C0,14.1632401 2.04368294,14.2016337 3.41620359,13.8077358 C4.78872424,13.4138378 5.79079817,12.390803 5.79079817,12.390803 C5.79079817,12.390803 4.67873166,12.190912 3.55857135,11.5489447 C2.43841104,10.9069773 2.03527784,9.65344043 2.03527784,9.65344043 L3.55857135,9.5156384 C3.55857135,9.5156384 2.19881399,8.90310424 1.53564173,7.93216028 C0.872469466,6.96121632 0.63608918,5.66849218 0.63608918,5.66849218 L2.19881399,6.03665603 C2.19881399,6.03665603 1.07024858,5.20527813 0.853168881,3.29867086 C0.63608918,1.39206358 1.28878101,0.70979827 1.28878101,0.70979827 Z" id="Path-5" fill="#FFFFFF"></path>
    </g>
</svg>