<?xml version="1.0" encoding="UTF-8" standalone="no"?>
<svg width="25px" height="14px" viewBox="0 0 25 14" version="1.1" xmlns="http://www.w3.org/2000/svg" xmlns:xlink="http://www.w3.org/1999/xlink">
    <!-- Generator: Sketch 41.2 (35397) - http://www.bohemiancoding.com/sketch -->
    <title>Slice 1</title>
    <desc>Created with Sketch.</desc>
    <defs></defs>
    <g id="Page-1" stroke="none" stroke-width="1" fill="none" fill-rule="evenodd">
        <path d="M0.369966518,2.35391049 C0.369966518,2.35391049 4.79028847,10.7865247 6.89965158,11.9788961 C9.0090147,13.1712675 10.2399581,13.7667813 12.4127567,13.7667813 C14.5855552,13.7667813 13.7948969,12.1385599 14.125245,11.4907657 C14.4555932,10.8429715 15.2043197,10.3352191 15.9119206,10.9129924 C16.6195216,11.4907657 18.1321614,13.1919647 18.1321614,13.1919647 C18.1321614,13.1919647 18.6077929,13.7786082 20.0196348,13.7786082 C21.4314768,13.7786082 23.8148757,13.7110064 23.8148757,13.7110064 C23.8148757,13.7110064 24.7344209,12.9926537 24.0011501,12.1206851 C23.2678793,11.2487164 20.6561397,8.64692219 20.6561397,8.64692219 C20.6561397,8.64692219 19.9242129,7.85989253 20.8436237,6.70730266 C21.7630345,5.55471278 24.0687519,2.42514097 24.0687519,2.42514097 C24.0687519,2.42514097 25.0338577,0.699481689 23.2946243,0.699481689 C21.555391,0.699481689 20.2182687,0.757049413 20.2182687,0.757049413 C20.2182687,0.757049413 19.3801499,0.783211107 18.7080298,2.03538926 C18.4106937,2.58933446 17.9079694,3.6658239 17.4572742,4.42284589 C17.0065791,5.17986788 16.0102993,6.03397299 16.0102993,6.03397299 C16.0102993,6.03397299 14.6406581,7.17634868 14.2491592,6.45866795 C13.8576603,5.74098722 14.0451443,1.97491055 14.0451443,1.97491055 C14.0451443,1.97491055 14.2772482,0.230435669 12.9662041,0.0518218692 C11.65516,-0.12679193 9.25523026,0.213636026 9.25523026,0.213636026 C9.25523026,0.213636026 8.24012866,0.46630265 8.41995204,0.825815001 C8.59977541,1.18532735 9.73086174,1.50680531 9.73086174,2.46425054 C9.73086174,3.42169577 9.75760678,5.6431461 9.75760678,5.6431461 C9.75760678,5.6431461 9.43491924,7.03765083 8.48110274,6.53581191 C8.0165216,6.29137821 7.14910583,5.40769253 6.49941139,4.42284589 C5.84971696,3.43799924 4.98436811,2.18606004 4.87517425,1.97491055 C4.66228918,1.56325211 4.82348456,0.720850834 3.60571207,0.720850834 C2.82256152,0.720850834 1.7123559,0.741972678 1.01964842,0.757049413 C0.769549957,0.76249279 0.379625613,0.748731822 0.160724551,0.948969597 C-0.0581765104,1.14920737 0.00415272059,1.27973317 0.0217000894,1.42896757 C0.0719173666,1.85604841 0.369966518,2.35391049 0.369966518,2.35391049 Z" id="Path-6" fill="#FFFFFF"></path>
    </g>
</svg>